<svg class="animated" id="freepik_stories-mobile-inbox" xmlns="http://www.w3.org/2000/svg" viewBox="0 0 500 500" version="1.1" xmlns:xlink="http://www.w3.org/1999/xlink" xmlns:svgjs="http://svgjs.com/svgjs"><style>svg#freepik_stories-mobile-inbox:not(.animated) .animable {opacity: 0;}svg#freepik_stories-mobile-inbox.animated #freepik--Plant--inject-14 {animation: 1s 1 forwards ease-in slideDown;animation-delay: 0s;}svg#freepik_stories-mobile-inbox.animated #freepik--Device--inject-14 {animation: 0.7s 1 forwards cubic-bezier(.36,-0.01,.5,1.38) slideUp,1.5s Infinite  linear floating;animation-delay: 0s,0.7s;}            @keyframes slideDown {                0% {                    opacity: 0;                    transform: translateY(-30px);                }                100% {                    opacity: 1;                    transform: translateY(0);                }            }                    @keyframes slideUp {                0% {                    opacity: 0;                    transform: translateY(30px);                }                100% {                    opacity: 1;                    transform: inherit;                }            }                    @keyframes floating {                0% {                    opacity: 1;                    transform: translateY(0px);                }                50% {                    transform: translateY(-10px);                }                100% {                    opacity: 1;                    transform: translateY(0px);                }            }        .animator-hidden { display: none; }</style><g id="freepik--background-complete--inject-14" class="animable animator-hidden" style="transform-origin: 250.705px 188.4px;"><g id="el7548lsh74l5"><rect x="118.33" y="128.29" width="57.76" height="91.08" style="fill: rgb(235, 235, 235); transform-origin: 147.21px 173.83px; transform: rotate(-82.23deg);" class="animable"></rect></g><path d="M106,139.06c3.17,4,6.43,7.83,9.63,11.76s6.5,7.73,9.78,11.55c3.41,4,6.85,8,10.28,11.91.11.12.2.25.31.38q4.57,5.22,9.17,10.43l.45.5.56-.36q5.82-3.79,11.62-7.62a4.53,4.53,0,0,0,.4-.26q6.59-4.32,13.12-8.73c4.16-2.8,8.34-5.65,12.49-8.5s8.31-5.76,12.43-8.75c-4.28,2.46-8.52,5.07-12.77,7.61s-8.49,5.19-12.72,7.85q-7.06,4.39-14.12,8.93s0,0,0,0q-5.29,3.36-10.58,6.76c-2.77-3.12-5.56-6.26-8.36-9.35,0,0,0,0,0,0q-5.58-6.22-11.21-12.38-5.06-5.52-10.15-11C112.84,146.23,109.46,142.58,106,139.06Z" style="fill: rgb(255, 255, 255); transform-origin: 151.12px 162.325px;" id="elkbjx6vs887" class="animable"></path><path d="M156.3,177.05a1.09,1.09,0,0,1,.1.11l1.26,1.4c2,2.22,4.07,4.36,6.18,6.46,2.58,2.58,5.23,5.09,7.9,7.58s5.39,4.89,8.18,7.25,5.6,4.7,8.54,6.88c-2.41-2.77-5-5.39-7.53-8s-5.24-5.09-7.89-7.57-5.41-4.91-8.19-7.28c-2.21-1.89-4.47-3.75-6.8-5.53q-.8-.63-1.62-1.23Z" style="fill: rgb(255, 255, 255); transform-origin: 172.38px 191.89px;" id="elk41msjt5ofe" class="animable"></path><path d="M98.65,194.49c3.43-1.32,6.78-2.81,10.08-4.34s6.57-3.17,9.83-4.81,6.47-3.38,9.64-5.18c2.59-1.46,5.15-3,7.66-4.56.55-.34,1.08-.68,1.61-1l.12-.08a.3.3,0,0,1-.15,0l-1.9.77c-2.71,1.09-5.37,2.29-8,3.51-3.31,1.54-6.57,3.16-9.82,4.82s-6.46,3.38-9.64,5.19S101.72,192.46,98.65,194.49Z" style="fill: rgb(255, 255, 255); transform-origin: 118.12px 184.505px;" id="eltlhy13a4uo" class="animable"></path><g id="eloi6g3gqlz8d"><rect x="59.19" y="64.97" width="77" height="48.83" style="fill: rgb(235, 235, 235); transform-origin: 97.69px 89.385px; transform: rotate(-14.24deg);" class="animable"></rect></g><path d="M54.36,75.19c3.75,2.12,7.52,4.1,11.28,6.16s7.54,4,11.32,6c3.94,2.06,7.89,4.07,11.84,6.08l.36.2,10.49,5.27.51.25.33-.46c2.24-3.21,4.46-6.43,6.69-9.65a4,4,0,0,0,.23-.34q3.8-5.46,7.52-11c2.38-3.51,4.75-7.07,7.1-10.62s4.69-7.15,7-10.79c-2.58,3.28-5.07,6.67-7.6,10s-5,6.76-7.48,10.18q-4.14,5.69-8.25,11.48s0,0,0,0q-3.07,4.31-6.15,8.65C96.35,95,93.17,93.45,90,91.91c0,0,0,0,0,0q-6.36-3.12-12.72-6.16c-3.8-1.81-7.61-3.61-11.42-5.37S58.2,76.85,54.36,75.19Z" style="fill: rgb(255, 255, 255); transform-origin: 91.695px 77.72px;" id="el2u4yz9ei98c" class="animable"></path><path d="M105.84,89a.6.6,0,0,0,.11.06l1.43.7q3.41,1.65,6.89,3.1c2.84,1.22,5.71,2.34,8.59,3.44s5.78,2.13,8.71,3.1,5.88,1.91,8.88,2.69c-2.77-1.41-5.59-2.66-8.42-3.87s-5.73-2.33-8.6-3.43-5.79-2.14-8.72-3.11c-2.33-.78-4.69-1.53-7.08-2.19-.55-.16-1.1-.3-1.66-.45Z" style="fill: rgb(255, 255, 255); transform-origin: 123.145px 95.545px;" id="elkext45abioe" class="animable"></path><path d="M66.17,121c2.27-2.11,4.42-4.34,6.52-6.6s4.16-4.56,6.19-6.87,4-4.71,5.91-7.12c1.57-2,3.11-4,4.57-6l.93-1.31s0-.07.07-.1l-.1.09c-.42.4-.84.79-1.25,1.2-1.78,1.71-3.49,3.49-5.18,5.3-2.11,2.25-4.15,4.56-6.17,6.88s-4,4.7-5.91,7.12S67.93,118.4,66.17,121Z" style="fill: rgb(255, 255, 255); transform-origin: 78.265px 107px;" id="elwes1e3dgq1" class="animable"></path><g id="el4x35bjlk9af"><rect x="364.39" y="265.85" width="77" height="48.83" style="fill: rgb(235, 235, 235); transform-origin: 402.89px 290.265px; transform: rotate(-6.69deg);" class="animable"></rect></g><path d="M361.81,270.5c3.44,2.59,6.92,5.05,10.37,7.6s6.95,4.95,10.44,7.39,7.29,5.07,10.94,7.58l.33.24q4.83,3.31,9.7,6.61l.48.31.38-.41q4-4.33,7.9-8.69a2.68,2.68,0,0,0,.28-.3q4.47-4.92,8.9-9.92c2.82-3.16,5.63-6.38,8.43-9.59s5.59-6.47,8.33-9.79c-3,2.92-5.9,6-8.85,8.93s-5.85,6-8.76,9.11q-4.85,5.08-9.67,10.29s0,0,0,0c-2.41,2.58-4.81,5.18-7.22,7.77-2.94-2-5.88-3.95-8.82-5.89,0,0,0,0,0,0q-5.88-3.93-11.8-7.78-5.28-3.45-10.61-6.82C368.93,274.93,365.39,272.65,361.81,270.5Z" style="fill: rgb(255, 255, 255); transform-origin: 400.05px 280.88px;" id="elww19dfgx6ym" class="animable"></path><path d="M411,291l.1.07c.44.3.89.6,1.33.88,2.11,1.4,4.25,2.72,6.43,4,2.65,1.57,5.35,3.06,8.06,4.54s5.45,2.86,8.23,4.21,5.57,2.67,8.44,3.83c-2.55-1.76-5.19-3.37-7.84-4.93s-5.37-3.07-8.07-4.54-5.46-2.88-8.23-4.23c-2.21-1.08-4.46-2.13-6.74-3.1q-.78-.34-1.59-.66Z" style="fill: rgb(255, 255, 255); transform-origin: 427.295px 299.765px;" id="elte9xqdb07ao" class="animable"></path><path d="M367.5,317.43c2.53-1.8,5-3.73,7.33-5.68s4.72-4,7-6,4.58-4.13,6.8-6.28c1.81-1.74,3.59-3.51,5.31-5.35l1.1-1.18a.73.73,0,0,0,.08-.09.34.34,0,0,1-.11.07l-1.39,1c-2,1.47-3.92,3-5.84,4.57-2.39,2-4.71,4-7,6s-4.58,4.13-6.8,6.28S369.58,315.12,367.5,317.43Z" style="fill: rgb(255, 255, 255); transform-origin: 381.31px 305.14px;" id="elow4iedtusko" class="animable"></path><path d="M378.13,159.62,365,159.9l-6.66.11c-2.23.05-4.47,0-6.7.06h-.44v-.45l-.06-11.19v-.5h.5l13.24.06c4.41,0,8.83.12,13.24.17h.28v.27c0,1.9-.08,3.79-.13,5.65Zm0,0L378,154c-.05-1.87-.11-3.71-.13-5.54l.27.27c-4.41.05-8.83.16-13.24.17l-13.24.06.5-.5,0,11.19-.45-.45c2.18,0,4.36,0,6.55.06l6.58.11Z" style="fill: rgb(235, 235, 235); transform-origin: 364.77px 154px;" id="elz94k8mbune" class="animable"></path><path d="M363.36,173.73l-13.13.28-6.66.11c-2.22,0-4.46,0-6.69.06h-.44v-.45l-.05-11.19V162h.5l13.24.06c4.41,0,8.83.12,13.24.17h.28v.27c0,1.9-.08,3.79-.13,5.65Zm0,0-.14-5.65c-.05-1.87-.11-3.71-.13-5.54l.27.27c-4.41.05-8.83.16-13.24.17l-13.24.06.5-.5-.06,11.19-.44-.45c2.18,0,4.36,0,6.54.06l6.58.11Z" style="fill: rgb(235, 235, 235); transform-origin: 350.02px 168.09px;" id="el8ase1agnocr" class="animable"></path><path d="M392.9,173.73l-13.12.28-6.66.11c-2.23,0-4.47,0-6.7.06H366v-.45l-.06-11.19V162h.5l13.24.06c4.42,0,8.83.12,13.24.17h.28v.27c0,1.9-.09,3.79-.14,5.65Zm0,0-.14-5.65c0-1.87-.11-3.71-.13-5.54l.27.27c-4.41.05-8.82.16-13.24.17l-13.24.06.5-.5-.05,11.19-.45-.45c2.18,0,4.36,0,6.55.06l6.58.11Z" style="fill: rgb(235, 235, 235); transform-origin: 379.57px 168.09px;" id="el4hbtlband8e" class="animable"></path><path d="M443.35,58.29l-13.13.28-6.66.11c-2.23,0-4.46,0-6.69.06h-.45v-.45l-.05-11.19v-.5h.51l13.24.06c4.41,0,8.82.12,13.24.17h.27v.27c0,1.9-.09,3.79-.13,5.65Zm0,0-.15-5.65c0-1.87-.11-3.71-.13-5.54l.28.27c-4.42.05-8.83.16-13.24.17l-13.24.06.49-.5-.05,11.19-.44-.45c2.18,0,4.35,0,6.54.06L430,58Z" style="fill: rgb(235, 235, 235); transform-origin: 430px 52.67px;" id="el2o71nlqbet7" class="animable"></path><path d="M458.12,72.4,445,72.68l-6.66.11c-2.22,0-4.46,0-6.69.06h-.45V72.4l-.05-11.19v-.5h.5l13.24.06c4.41,0,8.82.12,13.24.17h.27v.27c0,1.9-.09,3.79-.13,5.65Zm0,0L458,66.75c-.05-1.87-.12-3.71-.14-5.54l.28.27c-4.42.05-8.83.16-13.24.17l-13.24.06.5-.5-.06,11.19-.44-.45c2.18,0,4.35,0,6.54.06l6.58.11Z" style="fill: rgb(235, 235, 235); transform-origin: 444.775px 66.78px;" id="ell52eldgdh1i" class="animable"></path><path d="M68.36,58.3l-13.12.28-6.66.11c-2.23.05-4.47,0-6.7.06h-.44V58.3l-.06-11.19v-.5h.5l13.24.07c4.42,0,8.83.11,13.24.16h.28v.27c0,1.9-.09,3.79-.14,5.66Zm0,0-.14-5.65c0-1.86-.11-3.71-.13-5.54l.27.28c-4.41,0-8.82.15-13.24.16l-13.24.06.5-.5L42.33,58.3l-.45-.44c2.18,0,4.36,0,6.55,0L55,58Z" style="fill: rgb(235, 235, 235); transform-origin: 55.01px 52.68px;" id="elx0wjxx7jh5q" class="animable"></path><path d="M431.64,318.51l13.12-.28,6.66-.11c2.23-.05,4.47,0,6.7-.06h.44v.45l.06,11.19v.5h-.5l-13.24-.07c-4.42,0-8.83-.11-13.24-.16h-.28v-.27c0-1.9.09-3.79.13-5.66Zm0,0,.14,5.65c0,1.86.11,3.71.13,5.54l-.27-.28c4.41-.05,8.82-.15,13.24-.16l13.24-.06-.5.5.05-11.19.45.44c-2.18,0-4.36,0-6.55-.05l-6.58-.11Z" style="fill: rgb(235, 235, 235); transform-origin: 444.99px 324.13px;" id="elyahnlnspwrl" class="animable"></path><path d="M41.88,318.51,55,318.23l6.66-.11c2.22-.05,4.46,0,6.69-.06h.45v.45l0,11.19v.5h-.5l-13.24-.07c-4.41,0-8.82-.11-13.24-.16h-.27v-.27c0-1.9.09-3.79.13-5.66Zm0,0,.14,5.65c0,1.86.12,3.71.14,5.54l-.28-.28c4.42-.05,8.83-.15,13.24-.16l13.24-.06-.5.5.06-11.19.44.44c-2.18,0-4.35,0-6.54-.05l-6.58-.11Z" style="fill: rgb(235, 235, 235); transform-origin: 55.175px 324.13px;" id="elmk72r7c1vsr" class="animable"></path><path d="M56.65,304.4l13.13-.28,6.66-.11c2.23-.05,4.46,0,6.69-.06h.45v.45l0,11.19v.5h-.51L69.89,316c-4.41,0-8.82-.11-13.24-.16h-.27v-.27c0-1.9.09-3.79.13-5.66Zm0,0,.15,5.65c0,1.86.11,3.71.13,5.54l-.28-.28c4.42-.05,8.83-.15,13.24-.16l13.24-.06-.49.5,0-11.19.44.44c-2.18,0-4.35,0-6.54,0L70,304.68Z" style="fill: rgb(235, 235, 235); transform-origin: 69.98px 310.02px;" id="el27rvhatsdqg" class="animable"></path><g id="elkpnm6zm73j"><rect x="323.78" y="128.12" width="136.25" height="8.09" style="fill: rgb(235, 235, 235); transform-origin: 391.905px 132.165px; transform: rotate(180deg);" class="animable"></rect></g><rect x="441.59" y="136.21" width="8.09" height="26.76" style="fill: rgb(235, 235, 235); transform-origin: 445.635px 149.59px;" id="elgi9x1vk10nm" class="animable"></rect><rect x="441.59" y="136.21" width="8.09" height="8.27" style="fill: rgb(219, 219, 219); transform-origin: 445.635px 140.345px;" id="elhxprdpjl67t" class="animable"></rect><rect x="334.11" y="136.21" width="8.09" height="26.76" style="fill: rgb(235, 235, 235); transform-origin: 338.155px 149.59px;" id="el2d0e2zuzpt9" class="animable"></rect><rect x="334.11" y="136.21" width="8.09" height="8.27" style="fill: rgb(219, 219, 219); transform-origin: 338.155px 140.345px;" id="el0swo4zhd7k8" class="animable"></rect><g id="elloqqquqru3"><rect x="393.32" y="95.85" width="51.56" height="12.98" style="fill: rgb(199, 199, 199); transform-origin: 419.1px 102.34px; transform: rotate(90deg);" class="animable"></rect></g><g id="el1uq2g3falsii"><rect x="416.27" y="70.14" width="5.67" height="12.98" style="fill: rgb(219, 219, 219); transform-origin: 419.105px 76.63px; transform: rotate(90deg);" class="animable"></rect></g><g id="elivwtgjqw7x"><rect x="418.05" y="81.29" width="2.1" height="12.98" style="fill: rgb(219, 219, 219); transform-origin: 419.1px 87.78px; transform: rotate(90deg);" class="animable"></rect></g><g id="el8yupnxhk3l8"><rect x="415.46" y="111.22" width="5.67" height="14.6" style="fill: rgb(219, 219, 219); transform-origin: 418.295px 118.52px; transform: rotate(90deg);" class="animable"></rect></g><g id="elei88bw6efjh"><rect x="378" y="93.51" width="60.15" height="9.07" style="fill: rgb(219, 219, 219); transform-origin: 408.075px 98.045px; transform: rotate(90deg);" class="animable"></rect></g><g id="eln9dh7mqq2x"><rect x="396.54" y="82.47" width="23.13" height="5.45" style="fill: rgb(235, 235, 235); transform-origin: 408.105px 85.195px; transform: rotate(90deg);" class="animable"></rect></g><g id="el0ohiy4xz0w1o"><rect x="333.48" y="99.23" width="60.15" height="9.07" style="fill: rgb(199, 199, 199); transform-origin: 363.555px 103.765px; transform: rotate(135.33deg);" class="animable"></rect></g><g id="elstjyiaj37ej"><rect x="348.84" y="104.11" width="23.13" height="5.45" style="fill: rgb(219, 219, 219); transform-origin: 360.405px 106.835px; transform: rotate(135.33deg);" class="animable"></rect></g><g id="elv2zev7cfscg"><rect x="372.99" y="97.58" width="45.69" height="15.41" style="fill: rgb(166, 166, 166); transform-origin: 395.835px 105.285px; transform: rotate(90deg);" class="animable"></rect></g><g id="elaqev3qmm8wq"><rect x="393.7" y="113.46" width="4.26" height="15.41" style="fill: rgb(199, 199, 199); transform-origin: 395.83px 121.165px; transform: rotate(90deg);" class="animable"></rect></g><g id="elk50plt0v5b9"><rect x="395.01" y="107.71" width="1.65" height="15.41" style="fill: rgb(199, 199, 199); transform-origin: 395.835px 115.415px; transform: rotate(90deg);" class="animable"></rect></g><g id="el0zdbnm0jz8u"><rect x="409.45" y="101.34" width="42.94" height="10.65" style="fill: rgb(166, 166, 166); transform-origin: 430.92px 106.665px; transform: rotate(90deg);" class="animable"></rect></g><g id="elgava1dn2bg9"><rect x="428.91" y="116.26" width="4" height="10.65" style="fill: rgb(199, 199, 199); transform-origin: 430.91px 121.585px; transform: rotate(90deg);" class="animable"></rect></g><g id="ely6azh5ua77s"><rect x="428.91" y="90.73" width="4" height="10.65" style="fill: rgb(199, 199, 199); transform-origin: 430.91px 96.055px; transform: rotate(90deg);" class="animable"></rect></g><g id="elapq0ky16wk"><rect x="430.14" y="96.24" width="1.55" height="10.65" style="fill: rgb(199, 199, 199); transform-origin: 430.915px 101.565px; transform: rotate(90deg);" class="animable"></rect></g></g><g id="freepik--Table--inject-14" class="animable animator-hidden" style="transform-origin: 250px 448.53px;"><polygon points="39.97 448.53 92.48 448.29 144.99 448.2 250 448.03 355.01 448.2 407.52 448.29 460.03 448.53 407.52 448.78 355.01 448.86 250 449.03 144.99 448.86 92.48 448.77 39.97 448.53" style="fill: rgb(38, 50, 56); transform-origin: 250px 448.53px;" id="el7gmwzc646i5" class="animable"></polygon></g><g id="freepik--Plant--inject-14" class="animable animator-hidden" style="transform-origin: 425.764px 388.055px;"><path d="M409.13,360.17c14.57,14.26,17,36.33,13.94,55.66-.08.44-.76.32-.76-.09,0-4.4.14-8.76.12-13.11-.08-.2-.14-.39-.22-.59-3.8-2.76-7.3-5.88-9.47-10.17-2.43-4.78-3.39-10.18-5.25-15.18-.17-.48.34-.34.67-.09,8.87,6.54,11.69,13.57,14.23,23a78.27,78.27,0,0,0-1.54-14.64c-1.91-8.92-5.7-17.76-12.11-24.38A.27.27,0,0,1,409.13,360.17Z" style="fill: rgb(38, 50, 56); transform-origin: 415.844px 388.1px;" id="eltamwiv786j9" class="animable"></path><path d="M406.39,361.83c-2.51.09-4.08,4.09-6,5.26a1.89,1.89,0,0,1-2.77-.43c-1.94-2.71.72-6,3.22-7.9-1.79.73-3.27,2-5.2,2.39a1.81,1.81,0,0,1-2.34-1.41c-.85-3.68,3.77-5.32,6.94-5.4-1.54-1.06-5.94-4-3.6-5.4s7.54,2.72,9.23,4.09c2.47,2,5.43,5,5.54,8.16C411.53,364.86,408.32,362.6,406.39,361.83Z" style="fill: rgb(113, 39, 255); transform-origin: 402.305px 358.083px;" id="eli661akxsibn" class="animable"></path><g id="elaeucxuyfxd9"><path d="M406.39,361.83c-2.51.09-4.08,4.09-6,5.26a1.89,1.89,0,0,1-2.77-.43c-1.94-2.71.72-6,3.22-7.9-1.79.73-3.27,2-5.2,2.39a1.81,1.81,0,0,1-2.34-1.41c-.85-3.68,3.77-5.32,6.94-5.4-1.54-1.06-5.94-4-3.6-5.4s7.54,2.72,9.23,4.09c2.47,2,5.43,5,5.54,8.16C411.53,364.86,408.32,362.6,406.39,361.83Z" style="opacity: 0.1; transform-origin: 402.305px 358.083px;" class="animable"></path></g><path d="M407.11,362.45c-3.2-1.46-9.36.64-9.88-.57-1.06-2.47,3.86-4.17,6.51-4.49-2.44-.67-7.13-1.72-7-4.08.18-2.88,7.19-.4,10.74,2.32,4.47,3.43,4.44,6.73,3.7,7.4C410.18,363.93,407.64,362.69,407.11,362.45Z" style="fill: rgb(113, 39, 255); transform-origin: 404.145px 357.689px;" id="el47ry81w1fil" class="animable"></path><path d="M442.31,358.76c-15.1,13.7-18.39,35.66-16.05,55.09.06.44.74.35.76-.07.16-4.39.2-8.76.38-13.1l.24-.58c3.91-2.61,7.52-5.6,9.85-9.8,2.61-4.69,3.77-10.05,5.82-15,.2-.47-.32-.35-.66-.12-9.11,6.2-12.2,13.12-15.1,22.42a79,79,0,0,1,2.1-14.57c2.25-8.84,6.37-17.53,13-23.9C442.93,358.91,442.57,358.51,442.31,358.76Z" style="fill: rgb(38, 50, 56); transform-origin: 434.466px 386.41px;" id="elrlew9hlq8j8" class="animable"></path><path d="M445,360.52c2.5.18,3.92,4.24,5.83,5.49a1.88,1.88,0,0,0,2.78-.33c2-2.63-.49-6.06-2.91-8,1.75.8,3.18,2.15,5.09,2.59a1.81,1.81,0,0,0,2.4-1.32c1-3.64-3.57-5.46-6.73-5.66,1.58-1,6.09-3.74,3.8-5.26s-7.63,2.43-9.37,3.74c-2.55,1.91-5.62,4.8-5.85,7.94C439.73,363.35,443,361.22,445,360.52Z" style="fill: rgb(113, 39, 255); transform-origin: 449.175px 357.083px;" id="elurenjf37xuj" class="animable"></path><g id="elubn4n3yqx8h"><path d="M445,360.52c2.5.18,3.92,4.24,5.83,5.49a1.88,1.88,0,0,0,2.78-.33c2-2.63-.49-6.06-2.91-8,1.75.8,3.18,2.15,5.09,2.59a1.81,1.81,0,0,0,2.4-1.32c1-3.64-3.57-5.46-6.73-5.66,1.58-1,6.09-3.74,3.8-5.26s-7.63,2.43-9.37,3.74c-2.55,1.91-5.62,4.8-5.85,7.94C439.73,363.35,443,361.22,445,360.52Z" style="opacity: 0.1; transform-origin: 449.175px 357.083px;" class="animable"></path></g><path d="M444.23,361.11c3.26-1.33,9.33,1,9.9-.19,1.16-2.43-3.69-4.31-6.34-4.74,2.47-.57,7.2-1.45,7.14-3.81-.06-2.88-7.16-.67-10.81,1.91-4.6,3.26-4.7,6.56-4,7.25C441.11,362.48,443.7,361.33,444.23,361.11Z" style="fill: rgb(113, 39, 255); transform-origin: 447.366px 356.456px;" id="elzeuzw5to6zr" class="animable"></path><path d="M426.87,394.94a149.51,149.51,0,0,1-4.69,21.66.54.54,0,0,1-1.06-.21c1-6.68,2.8-13.23,3.79-19.91a99.8,99.8,0,0,0,1.16-20.43c-.63-11.25-3.69-23.21-11-32-.16-.2.18-.5.35-.31,14.69,17.14,12.36,38.15,12.34,40,2.08-7.09,4.23-15.22,12.1-22.45.34-.31.6-.16.55.37-1.41,13.16-5.07,20-12.7,27.06C427.47,390.81,427.2,392.89,426.87,394.94Z" style="fill: rgb(38, 50, 56); transform-origin: 427.722px 380.357px;" id="el9oq07vza4ij" class="animable"></path><path d="M414.91,346c-2.64-1.18-6.29,2.19-8.91,2.42a2.17,2.17,0,0,1-2.65-1.85c-.65-3.77,3.79-5.9,7.32-6.57-2.23-.14-4.41.45-6.59-.14a2.08,2.08,0,0,1-1.73-2.63c1-4.25,6.59-3.63,9.92-2.11-1.06-1.88-4.17-7.12-1-7.42s6.46,6.62,7.52,8.89c1.56,3.33,3.11,7.93,1.64,11.25C418.72,351.73,416.52,347.77,414.91,346Z" style="fill: rgb(113, 39, 255); transform-origin: 411.646px 338.592px;" id="elyqid5uqoi3" class="animable"></path><g id="elgt3og59gd6"><path d="M414.91,346c-2.64-1.18-6.29,2.19-8.91,2.42a2.17,2.17,0,0,1-2.65-1.85c-.65-3.77,3.79-5.9,7.32-6.57-2.23-.14-4.41.45-6.59-.14a2.08,2.08,0,0,1-1.73-2.63c1-4.25,6.59-3.63,9.92-2.11-1.06-1.88-4.17-7.12-1-7.42s6.46,6.62,7.52,8.89c1.56,3.33,3.11,7.93,1.64,11.25C418.72,351.73,416.52,347.77,414.91,346Z" style="opacity: 0.1; transform-origin: 411.646px 338.592px;" class="animable"></path></g><path d="M415.35,347c-2.59-3.12-10-4.05-10-5.57.14-3.09,6.1-2.38,9-1.38-2.2-1.92-6.53-5.37-5.2-7.75,1.64-2.9,7.66,3.2,10,7.81,2.91,5.81,1.21,9.23.11,9.54C417.78,350.1,415.78,347.53,415.35,347Z" style="fill: rgb(113, 39, 255); transform-origin: 413.057px 340.625px;" id="el7si2rf28vdl" class="animable"></path><path d="M436.53,398.9,443,448.42H403.58c.81-4.39,8.15-49.58,8.15-49.58Z" style="fill: rgb(113, 39, 255); transform-origin: 423.29px 423.63px;" id="eluhryrqjhsan" class="animable"></path></g><g id="freepik--Device--inject-14" class="animable animator-active" style="transform-origin: 288.515px 253.415px;"><path d="M374.66,58.3H202.35a17.59,17.59,0,0,0-17.43,17.76V430.77a17.61,17.61,0,0,0,17.43,17.76H374.66a17.62,17.62,0,0,0,17.45-17.76V76.06A17.6,17.6,0,0,0,374.66,58.3Zm6.55,361.5c0,9.34-7,16.89-15.62,16.89H211.44c-8.64,0-15.64-7.55-15.64-16.89V89.5c0-19,7-20,15.64-20h30.88c1.8,0,3.27,2,3.27,4.57v1.09c0,5.92,3.24,5.94,7.21,5.94h71.41c4,0,7.24,0,7.24-5.94V74.12c0-2.53,1.45-4.57,3.27-4.57h30.87c8.63,0,15.62,2.53,15.62,20Z" style="fill: rgb(38, 50, 56); transform-origin: 288.515px 253.415px;" id="elksudwjatvjr" class="animable"></path><path d="M381.22,89.5V419.8c0,9.34-7,16.89-15.62,16.89H211.45c-8.64,0-15.64-7.55-15.64-16.89V89.5c0-19,7-20,15.64-20h30.88c1.8,0,3.27,2,3.27,4.57v1.09c0,5.92,3.24,5.94,7.21,5.94h71.41c4,0,7.24,0,7.24-5.94V74.12c0-2.53,1.45-4.57,3.27-4.57H365.6C374.23,69.55,381.22,72.08,381.22,89.5Z" style="fill: rgb(255, 255, 255); transform-origin: 288.515px 253.095px;" id="el846ozhsxhw4" class="animable"></path><path d="M381.22,89.51v30H195.81v-30c0-19,7-20,15.64-20h30.88c1.8,0,3.27,2,3.27,4.57v1.09c0,5.92,3.24,5.94,7.21,5.94h71.41c4,0,7.24,0,7.24-5.94V74.13c0-2.53,1.45-4.57,3.27-4.57H365.6C374.23,69.56,381.22,72.09,381.22,89.51Z" style="fill: rgb(113, 39, 255); transform-origin: 288.515px 94.51px;" id="elsuvamiq3jq" class="animable"></path><path d="M298.25,73.47H278.77a1.21,1.21,0,0,1-1.2-1.21h0a1.2,1.2,0,0,1,1.2-1.2h19.48a1.2,1.2,0,0,1,1.2,1.2h0A1.2,1.2,0,0,1,298.25,73.47Z" style="fill: rgb(255, 255, 255); transform-origin: 288.51px 72.265px;" id="elbvs5tr5bloc" class="animable"></path><rect x="207.9" y="97.8" width="16.09" height="10.2" style="fill: rgb(255, 255, 255); transform-origin: 215.945px 102.9px;" id="elpiujca3iwyr" class="animable"></rect><path d="M224,97.8c-.65.62-1.31,1.22-2,1.83l-2,1.79L218,103.26l-.06.06L216,104.93l-.09.07-.09-.07L214,103.31l-.06,0c-.7-.61-1.4-1.22-2.09-1.84l-2-1.79c-.65-.61-1.31-1.21-2-1.83.69.54,1.37,1.09,2,1.64s1.36,1.11,2,1.68,1.51,1.26,2.26,1.9h0l1.68,1.44,1.69-1.44h0l2.25-1.9,2-1.67Z" style="fill: rgb(113, 39, 255); transform-origin: 215.925px 101.4px;" id="el8f4tvckcjyh" class="animable"></path><path d="M214.27,103.25s0,0,0,0l-.26.21c-.4.34-.82.67-1.24,1s-1,.76-1.56,1.13-1.06.73-1.6,1.08-1.1.69-1.66,1c.48-.43,1-.83,1.5-1.22s1-.76,1.57-1.13,1.06-.73,1.6-1.08.88-.55,1.33-.81a3.07,3.07,0,0,1,.31-.17Z" style="fill: rgb(113, 39, 255); transform-origin: 211.11px 105.46px;" id="elosegap261rf" class="animable"></path><path d="M224,107.68c-.57-.31-1.12-.65-1.66-1s-1.08-.71-1.61-1.08-1.05-.74-1.56-1.13-.83-.64-1.23-1l-.26-.21,0,0h0l.31.18q.68.39,1.32.81c.55.35,1.08.71,1.61,1.08s1.05.74,1.56,1.13S223.46,107.25,224,107.68Z" style="fill: rgb(113, 39, 255); transform-origin: 220.84px 105.47px;" id="elysc8h7slko" class="animable"></path><path d="M227.44,97.8A3.45,3.45,0,1,1,224,94.35,3.45,3.45,0,0,1,227.44,97.8Z" style="fill: rgb(69, 90, 100); transform-origin: 223.99px 97.8px;" id="elmw7cxxnmm0l" class="animable"></path><path d="M225.13,98.49a.28.28,0,0,1-.28.27h0v.38a.28.28,0,0,1-.55,0v-.38h-1.56a.22.22,0,0,1-.17-.06.26.26,0,0,1,0-.38L224.31,96s0,0,0,0,0,0,0,0h0l0,0h.08s0,0,0,0h.16l0,0,0,0h0l0,0a0,0,0,0,0,0,0l0,0v0s0,0,0,0a0,0,0,0,1,0,0v0s0,0,0,0v2h0A.28.28,0,0,1,225.13,98.49Zm-.88-1.5-1,1.23h1Z" style="fill: rgb(255, 255, 255); transform-origin: 223.853px 97.6837px;" id="eli4ogemub4t" class="animable"></path><g id="freepik--u5Zjqx--inject-14" class="animable" style="transform-origin: 233.665px 77.6099px;"><path d="M237,76.68l-.3.3-.17.17a4.07,4.07,0,0,0-5.75,0l-.16-.17c-.1-.1-.2-.19-.29-.29h0l0,0,.38-.34a4.13,4.13,0,0,1,.87-.55,4.29,4.29,0,0,1,1.16-.39c.19,0,.38,0,.57-.08h.51l.39,0a4.22,4.22,0,0,1,1.06.26,4.69,4.69,0,0,1,.72.33,5.33,5.33,0,0,1,.69.48l.31.29Z" style="fill: rgb(255, 255, 255); transform-origin: 233.665px 76.24px;" id="el7625855fudr" class="animable"></path><path d="M231.72,78.09l-.47-.47a3.27,3.27,0,0,1,1.91-1,3.36,3.36,0,0,1,2.89,1l-.47.47a2.73,2.73,0,0,0-1.93-.79A2.7,2.7,0,0,0,231.72,78.09Z" style="fill: rgb(255, 255, 255); transform-origin: 233.65px 77.3387px;" id="elcgq4hxzz8ir" class="animable"></path><path d="M235.11,78.56c-.16.15-.32.31-.47.47a1.37,1.37,0,0,0-1-.41,1.35,1.35,0,0,0-1,.41l-.47-.47A2.06,2.06,0,0,1,235.11,78.56Z" style="fill: rgb(255, 255, 255); transform-origin: 233.64px 78.4866px;" id="el6t7uwv8gv3m" class="animable"></path><path d="M234.07,79.45a.43.43,0,1,1-.42-.42A.42.42,0,0,1,234.07,79.45Z" style="fill: rgb(255, 255, 255); transform-origin: 233.64px 79.4599px;" id="el5784qdt1b0e" class="animable"></path></g><path d="M207.9,77.58a1.23,1.23,0,1,1,1.23,1.23A1.23,1.23,0,0,1,207.9,77.58Z" style="fill: rgb(255, 255, 255); transform-origin: 209.13px 77.58px;" id="el4ssptqiotvw" class="animable"></path><path d="M211.77,77.58A1.23,1.23,0,1,1,213,78.81,1.23,1.23,0,0,1,211.77,77.58Z" style="fill: rgb(255, 255, 255); transform-origin: 213px 77.58px;" id="eleql323ei6dm" class="animable"></path><path d="M215.64,77.58a1.23,1.23,0,1,1,1.23,1.23A1.23,1.23,0,0,1,215.64,77.58Z" style="fill: rgb(255, 255, 255); transform-origin: 216.87px 77.58px;" id="el1n5yj99qtvd" class="animable"></path><path d="M219.51,77.58a1.23,1.23,0,1,1,1.23,1.23A1.23,1.23,0,0,1,219.51,77.58Z" style="fill: rgb(255, 255, 255); transform-origin: 220.74px 77.58px;" id="el17evxyaqqd8" class="animable"></path><path d="M223.38,77.58a1.23,1.23,0,1,1,1.23,1.23A1.23,1.23,0,0,1,223.38,77.58Z" style="fill: rgb(255, 255, 255); transform-origin: 224.61px 77.58px;" id="elqb097ljgiij" class="animable"></path><path d="M367.3,80.27h-10V75.63h10Zm-9.49-.51h9V76.14h-9Z" style="fill: rgb(255, 255, 255); transform-origin: 362.3px 77.95px;" id="elv1ccjeecfoh" class="animable"></path><rect x="358.13" y="76.42" width="6.45" height="3.06" style="fill: rgb(255, 255, 255); transform-origin: 361.355px 77.95px;" id="el4r5znjbll0k" class="animable"></rect><rect x="367.31" y="76.71" width="0.89" height="2.48" style="fill: rgb(255, 255, 255); transform-origin: 367.755px 77.95px;" id="el77tzysygb85" class="animable"></rect><path d="M272.56,99.78a.59.59,0,0,1,.6-.6.6.6,0,0,1,.61.6v6.41a.6.6,0,0,1-.61.6.59.59,0,0,1-.6-.6Z" style="fill: rgb(255, 255, 255); transform-origin: 273.165px 102.985px;" id="el8ljaw82arho" class="animable"></path><path d="M277,106.19a.6.6,0,0,1-.59.6.59.59,0,0,1-.59-.6V99.87h0a.57.57,0,0,1,.23-.5.61.61,0,0,1,.83.13l3.51,4.86V99.87a.59.59,0,0,1,.59-.58.6.6,0,0,1,.6.58v6.32a.6.6,0,0,1-.6.6.61.61,0,0,1-.45-.22l0-.06L277,101.68Z" style="fill: rgb(255, 255, 255); transform-origin: 278.699px 103.026px;" id="elqgf9q3b8nz" class="animable"></path><path d="M284.19,106.19V99.78a.6.6,0,0,1,.6-.6h1.54a2.07,2.07,0,0,1,2.07,2.06,2,2,0,0,1-.42,1.24,2.33,2.33,0,0,1-1.22,4.31h-1.93a0,0,0,0,1,0,0h0A.6.6,0,0,1,284.19,106.19Zm1.21-4.06h.93a.88.88,0,0,0,.86-.89.85.85,0,0,0-.86-.85h-.93Zm0,3.45h1.36a1.13,1.13,0,0,0,0-2.25H285.4Z" style="fill: rgb(255, 255, 255); transform-origin: 286.636px 102.986px;" id="el0q7ft638byeq" class="animable"></path><path d="M296.65,100.12a4,4,0,0,1,0,5.51,3.58,3.58,0,0,1-2.6,1.16,3.69,3.69,0,0,1-2.66-1.16,4.05,4.05,0,0,1,0-5.51A3.65,3.65,0,0,1,294.05,99,3.55,3.55,0,0,1,296.65,100.12Zm-.14,2.75a2.81,2.81,0,0,0-.74-1.9,2.32,2.32,0,0,0-1.72-.77,2.37,2.37,0,0,0-1.76.77,2.81,2.81,0,0,0-.74,1.9,2.77,2.77,0,0,0,.74,1.9,2.38,2.38,0,0,0,1.76.78,2.33,2.33,0,0,0,1.72-.78A2.77,2.77,0,0,0,296.51,102.87Z" style="fill: rgb(255, 255, 255); transform-origin: 294.029px 102.895px;" id="elhek1lw130nn" class="animable"></path><path d="M304.8,100.21,302.73,103l2.07,2.82a.6.6,0,0,1-.13.83.59.59,0,0,1-.35.12.64.64,0,0,1-.49-.25L302,104l-1.84,2.51a.64.64,0,0,1-.48.25.55.55,0,0,1-.35-.12.6.6,0,0,1-.14-.83l2.07-2.82-2.07-2.81a.59.59,0,0,1,.14-.82.56.56,0,0,1,.83.13L302,102l1.82-2.5a.57.57,0,0,1,.84-.13A.59.59,0,0,1,304.8,100.21Z" style="fill: rgb(255, 255, 255); transform-origin: 301.999px 103px;" id="eldpb1wlna89r" class="animable"></path><path d="M355.68,106.73l-1.26,1-2.33-3.08-.85-1.13a2.15,2.15,0,0,0,.49-.27,2.08,2.08,0,0,0,.64-.84l.91,1.19Z" style="fill: rgb(255, 255, 255); transform-origin: 353.46px 105.07px;" id="el9juhoi6f89h" class="animable"></path><path d="M353.2,99.47a3.44,3.44,0,1,0-1.11,5.13,3,3,0,0,0,.48-.31,3.11,3.11,0,0,0,.71-.74A3.44,3.44,0,0,0,353.2,99.47Zm-1.47,3.73a2.15,2.15,0,0,1-.49.27,2.05,2.05,0,1,1,1.13-1.11A2.08,2.08,0,0,1,351.73,103.2Z" style="fill: rgb(255, 255, 255); transform-origin: 350.471px 101.565px;" id="elwf4os3moik" class="animable"></path><rect x="329.44" y="98.33" width="9.14" height="9.14" style="fill: rgb(255, 255, 255); transform-origin: 334.01px 102.9px;" id="el4yh0s7ixzgo" class="animable"></rect><rect x="333.51" y="100.03" width="1" height="5.75" style="fill: rgb(113, 39, 255); transform-origin: 334.01px 102.905px;" id="elch8665fmcrm" class="animable"></rect><g id="elsfnr925hsw"><rect x="333.51" y="100.03" width="1" height="5.75" style="fill: rgb(113, 39, 255); transform-origin: 334.01px 102.905px; transform: rotate(-90deg);" class="animable"></rect></g><path d="M367.3,98.92a.79.79,0,1,1-.79-.79A.79.79,0,0,1,367.3,98.92Z" style="fill: rgb(255, 255, 255); transform-origin: 366.51px 98.92px;" id="eld2fieit34bj" class="animable"></path><path d="M367.3,103a.79.79,0,0,1-1.58,0,.79.79,0,1,1,1.58,0Z" style="fill: rgb(255, 255, 255); transform-origin: 366.51px 103px;" id="elx9wahu9e0hg" class="animable"></path><path d="M367.3,107.12a.79.79,0,1,1-1.58,0,.79.79,0,0,1,1.58,0Z" style="fill: rgb(255, 255, 255); transform-origin: 366.51px 107.12px;" id="ellt6mykge23e" class="animable"></path><rect x="195.81" y="119.47" width="185.4" height="28.63" style="fill: rgb(235, 235, 235); transform-origin: 288.51px 133.785px;" id="el118h46o4y58b" class="animable"></rect><path d="M226,139.32a6.38,6.38,0,0,1-1.88.78,6.48,6.48,0,1,1,1.88-.78Z" style="fill: rgb(113, 39, 255); transform-origin: 222.608px 133.799px;" id="eluwhgemytrk" class="animable"></path><path d="M224.51,133a2,2,0,1,1-2-2A2,2,0,0,1,224.51,133Z" style="fill: rgb(255, 255, 255); transform-origin: 222.51px 133px;" id="elr162bw4mtpc" class="animable"></path><path d="M226,138.5v.82a6.38,6.38,0,0,1-1.88.78,6.5,6.5,0,0,1-5-.78v-.82a3.42,3.42,0,0,1,6.84,0Z" style="fill: rgb(255, 255, 255); transform-origin: 222.56px 137.687px;" id="elni19f5ndu4" class="animable"></path><polygon points="263.36 138.09 254.76 138.09 258.27 133.79 254.76 129.49 263.36 129.49 266.87 133.79 263.36 138.09" style="fill: rgb(255, 255, 255); transform-origin: 260.815px 133.79px;" id="el0cv5oo5m534p" class="animable"></polygon><polygon points="241.26 129.49 242.66 132.32 245.78 132.77 243.52 134.98 244.06 138.09 241.26 136.62 238.47 138.09 239 134.98 236.74 132.77 239.86 132.32 241.26 129.49" style="fill: rgb(113, 39, 255); transform-origin: 241.26px 133.79px;" id="el9slarnsuly" class="animable"></polygon><rect x="273.04" y="132.04" width="50.74" height="3.5" style="fill: rgb(38, 50, 56); transform-origin: 298.41px 133.79px;" id="elw9ivk5m2jep" class="animable"></rect><rect x="344.69" y="132.04" width="19.89" height="3.5" style="fill: rgb(69, 90, 100); transform-origin: 354.635px 133.79px;" id="ely61snvciss" class="animable"></rect><path d="M226,168a6.38,6.38,0,0,1-1.88.78A6.48,6.48,0,1,1,226,168Z" style="fill: rgb(69, 90, 100); transform-origin: 222.608px 162.479px;" id="eljfm564uzp" class="animable"></path><path d="M224.51,161.68a2,2,0,1,1-2-2A2,2,0,0,1,224.51,161.68Z" style="fill: rgb(255, 255, 255); transform-origin: 222.51px 161.68px;" id="el5sf2bcf17af" class="animable"></path><path d="M226,167.13V168a6.38,6.38,0,0,1-1.88.78,6.45,6.45,0,0,1-5-.78v-.82a3.42,3.42,0,0,1,6.84,0Z" style="fill: rgb(255, 255, 255); transform-origin: 222.56px 166.369px;" id="elrqb7c87xfhk" class="animable"></path><polygon points="263.36 166.72 254.76 166.72 258.27 162.42 254.76 158.12 263.36 158.12 266.87 162.42 263.36 166.72" style="fill: rgb(255, 255, 255); transform-origin: 260.815px 162.42px;" id="eld63ic9g25z4" class="animable"></polygon><path d="M263.48,167h-9.25l3.72-4.55-3.72-4.55h9.25l3.71,4.55Zm-8.19-.5h8l3.3-4.05-3.3-4h-8l3.3,4Z" style="fill: rgb(235, 235, 235); transform-origin: 260.71px 162.45px;" id="el0fypgg0iggkj" class="animable"></path><polygon points="241.26 158.12 242.66 160.95 245.78 161.4 243.52 163.61 244.06 166.72 241.26 165.25 238.47 166.72 239 163.61 236.74 161.4 239.86 160.95 241.26 158.12" style="fill: rgb(113, 39, 255); transform-origin: 241.26px 162.42px;" id="elxu4lwp7mo5j" class="animable"></polygon><rect x="273.04" y="160.67" width="50.74" height="3.5" style="fill: rgb(38, 50, 56); transform-origin: 298.41px 162.42px;" id="eluwxm1doszsq" class="animable"></rect><rect x="344.69" y="160.67" width="19.89" height="3.5" style="fill: rgb(69, 90, 100); transform-origin: 354.635px 162.42px;" id="elvtq6arecfth" class="animable"></rect><rect x="195.81" y="176.73" width="185.4" height="28.63" style="fill: rgb(235, 235, 235); transform-origin: 288.51px 191.045px;" id="elrdfhmld6lr" class="animable"></rect><path d="M226,196.58a6.68,6.68,0,0,1-1.88.79,6.52,6.52,0,1,1,1.88-.79Z" style="fill: rgb(113, 39, 255); transform-origin: 222.565px 191.038px;" id="el2i5omhqssw2" class="animable"></path><path d="M224.51,190.31a2,2,0,1,1-2-2A2,2,0,0,1,224.51,190.31Z" style="fill: rgb(255, 255, 255); transform-origin: 222.51px 190.31px;" id="eljlqhnv5piod" class="animable"></path><path d="M226,195.76v.82a6.68,6.68,0,0,1-1.88.79,6.46,6.46,0,0,1-5-.79v-.82a3.42,3.42,0,0,1,6.84,0Z" style="fill: rgb(255, 255, 255); transform-origin: 222.56px 194.952px;" id="elyk2hdlimgbn" class="animable"></path><polygon points="263.36 195.35 254.76 195.35 258.27 191.05 254.76 186.75 263.36 186.75 266.87 191.05 263.36 195.35" style="fill: rgb(255, 255, 255); transform-origin: 260.815px 191.05px;" id="eljav7il0urr" class="animable"></polygon><polygon points="241.26 186.75 242.66 189.58 245.78 190.03 243.52 192.24 244.06 195.35 241.26 193.88 238.47 195.35 239 192.24 236.74 190.03 239.86 189.58 241.26 186.75" style="fill: rgb(255, 255, 255); transform-origin: 241.26px 191.05px;" id="el79ixwtv6d63" class="animable"></polygon><rect x="273.04" y="189.3" width="50.74" height="3.5" style="fill: rgb(219, 219, 219); transform-origin: 298.41px 191.05px;" id="elpcy1w21gbt" class="animable"></rect><rect x="344.69" y="189.3" width="19.89" height="3.5" style="fill: rgb(199, 199, 199); transform-origin: 354.635px 191.05px;" id="el6vioy5uwabn" class="animable"></rect><path d="M226,225.21a6.68,6.68,0,0,1-1.88.79,6.52,6.52,0,1,1,1.88-.79Z" style="fill: rgb(166, 166, 166); transform-origin: 222.565px 219.668px;" id="elfygpi3ae53l" class="animable"></path><path d="M224.51,218.94a2,2,0,1,1-2-2A2,2,0,0,1,224.51,218.94Z" style="fill: rgb(255, 255, 255); transform-origin: 222.51px 218.94px;" id="elj82ckgw5w68" class="animable"></path><path d="M226,224.4v.81a6.68,6.68,0,0,1-1.88.79,6.46,6.46,0,0,1-5-.79v-.81a3.42,3.42,0,1,1,6.84,0Z" style="fill: rgb(255, 255, 255); transform-origin: 222.56px 223.587px;" id="el2pr0v93xquk" class="animable"></path><polygon points="263.36 223.98 254.76 223.98 258.27 219.68 254.76 215.38 263.36 215.38 266.87 219.68 263.36 223.98" style="fill: rgb(255, 255, 255); transform-origin: 260.815px 219.68px;" id="elfnqxu64i44o" class="animable"></polygon><path d="M263.48,224.23h-9.25l3.72-4.55-3.72-4.55h9.25l3.71,4.55Zm-8.19-.5h8l3.3-4-3.3-4.05h-8l3.3,4.05Z" style="fill: rgb(235, 235, 235); transform-origin: 260.71px 219.68px;" id="elbsabtv65t3k" class="animable"></path><polygon points="241.26 215.38 242.66 218.21 245.78 218.67 243.52 220.87 244.06 223.98 241.26 222.51 238.47 223.98 239 220.87 236.74 218.67 239.86 218.21 241.26 215.38" style="fill: rgb(113, 39, 255); transform-origin: 241.26px 219.68px;" id="el2q24ru7jsvr" class="animable"></polygon><rect x="273.04" y="217.93" width="50.74" height="3.5" style="fill: rgb(219, 219, 219); transform-origin: 298.41px 219.68px;" id="ele02c172lubr" class="animable"></rect><rect x="344.69" y="217.93" width="19.89" height="3.5" style="fill: rgb(199, 199, 199); transform-origin: 354.635px 219.68px;" id="el9y7bmzasxkm" class="animable"></rect><rect x="195.81" y="234" width="185.4" height="28.63" style="fill: rgb(235, 235, 235); transform-origin: 288.51px 248.315px;" id="elmds8dsvy28m" class="animable"></rect><path d="M226,253.84a6.68,6.68,0,0,1-1.88.79,6.52,6.52,0,1,1,1.88-.79Z" style="fill: rgb(55, 71, 79); transform-origin: 222.565px 248.298px;" id="eljkxgvp2uni" class="animable"></path><path d="M224.51,247.57a2,2,0,1,1-2-2A2,2,0,0,1,224.51,247.57Z" style="fill: rgb(255, 255, 255); transform-origin: 222.51px 247.57px;" id="elktzcdb93x5a" class="animable"></path><path d="M226,253v.81a6.68,6.68,0,0,1-1.88.79,6.46,6.46,0,0,1-5-.79V253a3.42,3.42,0,0,1,6.84,0Z" style="fill: rgb(255, 255, 255); transform-origin: 222.56px 252.187px;" id="elehny0yevrz4" class="animable"></path><polygon points="263.36 252.61 254.76 252.61 258.27 248.31 254.76 244.01 263.36 244.01 266.87 248.31 263.36 252.61" style="fill: rgb(255, 255, 255); transform-origin: 260.815px 248.31px;" id="el8sezobif34" class="animable"></polygon><polygon points="241.26 244.01 242.66 246.84 245.78 247.3 243.52 249.5 244.06 252.61 241.26 251.14 238.47 252.61 239 249.5 236.74 247.3 239.86 246.84 241.26 244.01" style="fill: rgb(113, 39, 255); transform-origin: 241.26px 248.31px;" id="el31e35r58r1f" class="animable"></polygon><rect x="273.04" y="246.56" width="50.74" height="3.5" style="fill: rgb(219, 219, 219); transform-origin: 298.41px 248.31px;" id="elgwj2yxzlbag" class="animable"></rect><rect x="344.69" y="246.56" width="19.89" height="3.5" style="fill: rgb(199, 199, 199); transform-origin: 354.635px 248.31px;" id="el05biglf7dedr" class="animable"></rect><path d="M381.22,405.78v14a17.15,17.15,0,0,1-7.78,14.61H203.6a17.14,17.14,0,0,1-7.78-14.61v-14Z" style="fill: rgb(235, 235, 235); transform-origin: 288.52px 420.085px;" id="eld4f56g60i3" class="animable"></path><path d="M226,425.63a6.68,6.68,0,0,1-1.88.79,6.52,6.52,0,1,1,1.88-.79Z" style="fill: rgb(113, 39, 255); transform-origin: 222.565px 420.088px;" id="elfypj3ri5y4m" class="animable"></path><path d="M224.51,419.36a2,2,0,1,1-2-2A2,2,0,0,1,224.51,419.36Z" style="fill: rgb(255, 255, 255); transform-origin: 222.51px 419.36px;" id="elzt0fqzxv0m" class="animable"></path><path d="M226,424.81v.82a6.68,6.68,0,0,1-1.88.79,6.5,6.5,0,0,1-5-.79v-.82a3.42,3.42,0,0,1,6.84,0Z" style="fill: rgb(255, 255, 255); transform-origin: 222.56px 424.001px;" id="elnuqa263ja3" class="animable"></path><polygon points="263.36 424.4 254.76 424.4 258.27 420.1 254.76 415.8 263.36 415.8 266.87 420.1 263.36 424.4" style="fill: rgb(255, 255, 255); transform-origin: 260.815px 420.1px;" id="elrw0awfz3vlk" class="animable"></polygon><polygon points="241.26 415.8 242.66 418.63 245.78 419.08 243.52 421.29 244.06 424.4 241.26 422.93 238.47 424.4 239 421.29 236.74 419.08 239.86 418.63 241.26 415.8" style="fill: rgb(113, 39, 255); transform-origin: 241.26px 420.1px;" id="elzqko4w60jv" class="animable"></polygon><rect x="273.04" y="418.35" width="50.74" height="3.5" style="fill: rgb(219, 219, 219); transform-origin: 298.41px 420.1px;" id="el7tszxoem76j" class="animable"></rect><rect x="344.69" y="418.35" width="19.89" height="3.5" style="fill: rgb(199, 199, 199); transform-origin: 354.635px 420.1px;" id="elc01en9nr0e" class="animable"></rect><path d="M226,282.47a6.51,6.51,0,0,1-9.74-4,6.51,6.51,0,1,1,9.74,4Z" style="fill: rgb(38, 50, 56); transform-origin: 222.585px 276.928px;" id="ele2qfb9jjvul" class="animable"></path><path d="M224.51,276.2a2,2,0,1,1-2-2A2,2,0,0,1,224.51,276.2Z" style="fill: rgb(255, 255, 255); transform-origin: 222.51px 276.2px;" id="elb0q7lvyjpw7" class="animable"></path><path d="M226,281.66v.81a6.48,6.48,0,0,1-6.84,0v-.81a3.42,3.42,0,1,1,6.84,0Z" style="fill: rgb(255, 255, 255); transform-origin: 222.58px 280.843px;" id="elapp1gmzjide" class="animable"></path><polygon points="263.36 281.24 254.76 281.24 258.27 276.94 254.76 272.64 263.36 272.64 266.87 276.94 263.36 281.24" style="fill: rgb(255, 255, 255); transform-origin: 260.815px 276.94px;" id="elnf944w73h5" class="animable"></polygon><path d="M263.48,281.49h-9.25l3.72-4.55-3.72-4.55h9.25l3.71,4.55Zm-8.19-.5h8l3.3-4.05-3.3-4.05h-8l3.3,4.05Z" style="fill: rgb(235, 235, 235); transform-origin: 260.71px 276.94px;" id="elzhbfpjfqkvc" class="animable"></path><polygon points="241.26 272.64 242.66 275.47 245.78 275.93 243.52 278.13 244.06 281.24 241.26 279.77 238.47 281.24 239 278.13 236.74 275.93 239.86 275.47 241.26 272.64" style="fill: rgb(255, 255, 255); transform-origin: 241.26px 276.94px;" id="elxdntn9upzai" class="animable"></polygon><path d="M244.39,281.7l-3.13-1.64-3.13,1.64.6-3.48-2.53-2.47,3.5-.5,1.56-3.17,1.56,3.17,3.5.5-2.53,2.47Zm-3.13-2.21,2.46,1.3-.47-2.75,2-1.94-2.76-.4-1.23-2.49L240,275.7l-2.75.4,2,1.94-.47,2.75Z" style="fill: rgb(235, 235, 235); transform-origin: 241.26px 276.89px;" id="el1334jvgvuc4a" class="animable"></path><rect x="273.04" y="275.19" width="50.74" height="3.5" style="fill: rgb(219, 219, 219); transform-origin: 298.41px 276.94px;" id="el79chsdnzgho" class="animable"></rect><rect x="344.69" y="275.19" width="19.89" height="3.5" style="fill: rgb(199, 199, 199); transform-origin: 354.635px 276.94px;" id="elm76jpwnz0jq" class="animable"></rect><rect x="195.81" y="291.26" width="185.4" height="28.63" style="fill: rgb(235, 235, 235); transform-origin: 288.51px 305.575px;" id="el7x7nf4y9le4" class="animable"></rect><path d="M226,311.11a6.66,6.66,0,0,1-1.88.78,6.5,6.5,0,1,1,4.78-7.86A6.52,6.52,0,0,1,226,311.11Z" style="fill: rgb(113, 39, 255); transform-origin: 222.585px 305.574px;" id="elzfg7mvz7go" class="animable"></path><path d="M224.51,304.83a2,2,0,1,1-2-2A2,2,0,0,1,224.51,304.83Z" style="fill: rgb(255, 255, 255); transform-origin: 222.51px 304.83px;" id="eloxndeqb5vu" class="animable"></path><path d="M226,310.29v.82a6.66,6.66,0,0,1-1.88.78,6.46,6.46,0,0,1-5-.79v-.81a3.42,3.42,0,1,1,6.84,0Z" style="fill: rgb(255, 255, 255); transform-origin: 222.56px 309.477px;" id="elzee75nalq5l" class="animable"></path><polygon points="263.36 309.88 254.76 309.88 258.27 305.57 254.76 301.27 263.36 301.27 266.87 305.57 263.36 309.88" style="fill: rgb(255, 255, 255); transform-origin: 260.815px 305.575px;" id="elw9nokctxfad" class="animable"></polygon><polygon points="241.26 301.27 242.66 304.11 245.78 304.56 243.52 306.76 244.06 309.88 241.26 308.41 238.47 309.88 239 306.76 236.74 304.56 239.86 304.11 241.26 301.27" style="fill: rgb(113, 39, 255); transform-origin: 241.26px 305.575px;" id="elilsaysa8hjm" class="animable"></polygon><rect x="273.04" y="303.83" width="50.74" height="3.5" style="fill: rgb(38, 50, 56); transform-origin: 298.41px 305.58px;" id="elt0ppfb4ac6" class="animable"></rect><rect x="344.69" y="303.83" width="19.89" height="3.5" style="fill: rgb(69, 90, 100); transform-origin: 354.635px 305.58px;" id="elw37x5jir9v" class="animable"></rect><path d="M226,339.74a6.38,6.38,0,0,1-1.88.78,6.5,6.5,0,1,1,4.78-7.86A6.52,6.52,0,0,1,226,339.74Z" style="fill: rgb(113, 39, 255); transform-origin: 222.585px 334.204px;" id="el30eq43i1fvf" class="animable"></path><path d="M224.51,333.46a2,2,0,1,1-2-2A2,2,0,0,1,224.51,333.46Z" style="fill: rgb(255, 255, 255); transform-origin: 222.51px 333.46px;" id="elllzywlh4r88" class="animable"></path><path d="M226,338.92v.82a6.38,6.38,0,0,1-1.88.78,6.46,6.46,0,0,1-5-.79v-.81a3.42,3.42,0,1,1,6.84,0Z" style="fill: rgb(255, 255, 255); transform-origin: 222.56px 338.107px;" id="el5twud424vow" class="animable"></path><polygon points="263.36 338.51 254.76 338.51 258.27 334.21 254.76 329.91 263.36 329.91 266.87 334.21 263.36 338.51" style="fill: rgb(255, 255, 255); transform-origin: 260.815px 334.21px;" id="elnugqnuj5lnd" class="animable"></polygon><path d="M263.48,338.76h-9.25l3.72-4.55-3.72-4.55h9.25l3.71,4.55Zm-8.19-.5h8l3.3-4.05-3.3-4h-8l3.3,4Z" style="fill: rgb(235, 235, 235); transform-origin: 260.71px 334.21px;" id="elg8ur36af7dn" class="animable"></path><polygon points="241.26 329.91 242.66 332.74 245.78 333.19 243.52 335.39 244.06 338.51 241.26 337.04 238.47 338.51 239 335.39 236.74 333.19 239.86 332.74 241.26 329.91" style="fill: rgb(255, 255, 255); transform-origin: 241.26px 334.21px;" id="elxudlrr6vp69" class="animable"></polygon><path d="M244.39,339l-3.13-1.64L238.13,339l.6-3.48L236.2,333l3.5-.51,1.56-3.17,1.56,3.17,3.5.51-2.53,2.46Zm-7.11-5.59,2,1.94-.47,2.74,2.46-1.3,2.46,1.3-.47-2.74,2-1.94-2.76-.41-1.23-2.49L240,333Z" style="fill: rgb(235, 235, 235); transform-origin: 241.26px 334.16px;" id="elkudk9jhacwe" class="animable"></path><rect x="273.04" y="332.46" width="50.74" height="3.5" style="fill: rgb(219, 219, 219); transform-origin: 298.41px 334.21px;" id="elgrd9djdnlch" class="animable"></rect><rect x="344.69" y="332.46" width="19.89" height="3.5" style="fill: rgb(199, 199, 199); transform-origin: 354.635px 334.21px;" id="elwkj9j4r6w0j" class="animable"></rect><rect x="195.81" y="348.52" width="185.4" height="28.63" style="fill: rgb(235, 235, 235); transform-origin: 288.51px 362.835px;" id="elwzuxtmwal" class="animable"></rect><path d="M226,368.37a6.38,6.38,0,0,1-1.88.78,6.48,6.48,0,1,1,1.88-.78Z" style="fill: rgb(69, 90, 100); transform-origin: 222.608px 362.849px;" id="elcky8cupel1m" class="animable"></path><path d="M224.51,362.09a2,2,0,1,1-2-2A2,2,0,0,1,224.51,362.09Z" style="fill: rgb(255, 255, 255); transform-origin: 222.51px 362.09px;" id="elr3q6jds52j" class="animable"></path><path d="M226,367.55v.82a6.38,6.38,0,0,1-1.88.78,6.5,6.5,0,0,1-5-.78v-.82a3.42,3.42,0,0,1,6.84,0Z" style="fill: rgb(255, 255, 255); transform-origin: 222.56px 366.737px;" id="el51ye44q4jo7" class="animable"></path><polygon points="263.36 367.14 254.76 367.14 258.27 362.84 254.76 358.54 263.36 358.54 266.87 362.84 263.36 367.14" style="fill: rgb(255, 255, 255); transform-origin: 260.815px 362.84px;" id="eln51q5937d2o" class="animable"></polygon><polygon points="241.26 358.54 242.66 361.37 245.78 361.82 243.52 364.02 244.06 367.14 241.26 365.67 238.47 367.14 239 364.02 236.74 361.82 239.86 361.37 241.26 358.54" style="fill: rgb(255, 255, 255); transform-origin: 241.26px 362.84px;" id="elb4bvbvkznng" class="animable"></polygon><rect x="273.04" y="361.09" width="50.74" height="3.5" style="fill: rgb(219, 219, 219); transform-origin: 298.41px 362.84px;" id="el1gyjdztvqyg" class="animable"></rect><rect x="344.69" y="361.09" width="19.89" height="3.5" style="fill: rgb(199, 199, 199); transform-origin: 354.635px 362.84px;" id="ellu4tacngok" class="animable"></rect><path d="M226,397a6.38,6.38,0,0,1-1.88.78A6.48,6.48,0,1,1,226,397Z" style="fill: rgb(166, 166, 166); transform-origin: 222.608px 391.479px;" id="el3ulmayknsge" class="animable"></path><path d="M224.51,390.73a2,2,0,1,1-2-2A2,2,0,0,1,224.51,390.73Z" style="fill: rgb(255, 255, 255); transform-origin: 222.51px 390.73px;" id="el2cklxnqafxz" class="animable"></path><path d="M226,396.18V397a6.38,6.38,0,0,1-1.88.78,6.45,6.45,0,0,1-5-.78v-.82a3.42,3.42,0,0,1,6.84,0Z" style="fill: rgb(255, 255, 255); transform-origin: 222.56px 395.369px;" id="el5rnluo0u7ek" class="animable"></path><polygon points="263.36 395.77 254.76 395.77 258.27 391.47 254.76 387.17 263.36 387.17 266.87 391.47 263.36 395.77" style="fill: rgb(255, 255, 255); transform-origin: 260.815px 391.47px;" id="elv9tcv6qy6kn" class="animable"></polygon><path d="M263.48,396h-9.25l3.72-4.55-3.72-4.55h9.25l3.71,4.55Zm-8.19-.5h8l3.3-4-3.3-4.05h-8l3.3,4.05Z" style="fill: rgb(235, 235, 235); transform-origin: 260.71px 391.45px;" id="elk4qs2m7z6hk" class="animable"></path><polygon points="241.26 387.17 242.66 390 245.78 390.45 243.52 392.66 244.06 395.77 241.26 394.3 238.47 395.77 239 392.66 236.74 390.45 239.86 390 241.26 387.17" style="fill: rgb(255, 255, 255); transform-origin: 241.26px 391.47px;" id="elza0ykg94g5d" class="animable"></polygon><path d="M244.39,396.23l-3.13-1.65-3.13,1.65.6-3.49-2.53-2.46,3.5-.51,1.56-3.17,1.56,3.17,3.5.51-2.53,2.46ZM241.26,394l2.46,1.29-.47-2.74,2-1.94-2.76-.4-1.23-2.5-1.23,2.5-2.75.4,2,1.94-.47,2.74Z" style="fill: rgb(235, 235, 235); transform-origin: 241.26px 391.415px;" id="elfi4r9c2jyi4" class="animable"></path><rect x="273.04" y="389.72" width="50.74" height="3.5" style="fill: rgb(219, 219, 219); transform-origin: 298.41px 391.47px;" id="eld01b3jxcc1" class="animable"></rect><rect x="344.69" y="389.72" width="19.89" height="3.5" style="fill: rgb(199, 199, 199); transform-origin: 354.635px 391.47px;" id="elp7aqiw2e3g" class="animable"></rect></g><g id="freepik--Character--inject-14" class="animable animator-hidden" style="transform-origin: 173.308px 304.663px;"><path d="M224.73,448.72H143.55c-9.71-34.06-17.52-60-17.52-60H203S212.51,414.41,224.73,448.72Z" style="fill: rgb(55, 71, 79); transform-origin: 175.38px 418.72px;" id="el1c3ooy1hxd1" class="animable"></path><path d="M155.44,448.72h-1.67c-4.81-16.05-9.81-32-14.71-48.07-.07-.21.26-.31.34-.1,1,2.78,2,5.56,3,8.35C147.08,422.06,151.37,435.36,155.44,448.72Z" style="fill: rgb(38, 50, 56); transform-origin: 147.245px 424.577px;" id="el1wipasv2h36" class="animable"></path><path d="M201.24,388.75c-.09,1.61-4.38,16.34-6.6,38.38-.81,8.13-1.73,15.78-2.71,21.59H84.2c-10.66-32.94,5.16-60,5.16-60S201.25,388.68,201.24,388.75Z" style="fill: rgb(55, 71, 79); transform-origin: 140.874px 418.714px;" id="elxlv19u8qj2l" class="animable"></path><path d="M179.71,425.23c.38,5.53.51,11.07.44,16.6a51,51,0,0,0-.06,6.89h-1.87c-.45-3.51,0-7.88,0-11.33-.06-14.29-1.88-28.42-4.08-42.52a.27.27,0,0,1,.52-.11A150.36,150.36,0,0,1,179.71,425.23Z" style="fill: rgb(38, 50, 56); transform-origin: 177.154px 421.656px;" id="el1a69odmh01c" class="animable"></path><path d="M193.07,432.37c-.1,2.94-.9,10.77-3.21,16.35h-1.61c3.13-7.63,2.95-22.52,2.72-26-.65-10.2-1.44-19.78-3.17-30.52-.06-.34.5-.36.57-.05C191.42,405.11,193.49,419.07,193.07,432.37Z" style="fill: rgb(38, 50, 56); transform-origin: 190.46px 420.325px;" id="ela5ba4jn00x4" class="animable"></path><path d="M90.85,403.05c-3.12,13.49-1.6,28,1.38,41.35.31,1.45.66,2.89,1,4.32H91.61c-4.41-18.61-5.76-37.87,2-55.92.1-.22.43,0,.34.19A69.17,69.17,0,0,0,90.85,403.05Z" style="fill: rgb(38, 50, 56); transform-origin: 91.0042px 420.714px;" id="el51uypgoy78m" class="animable"></path><path d="M269.7,192,252,248.34c-.71,1.64.06,3.06,1.7,3.15l29.48,1.68a4.75,4.75,0,0,0,4.26-2.8l17.66-56.3c.71-1.65-.06-3.06-1.7-3.15L274,189.24A4.75,4.75,0,0,0,269.7,192Z" style="fill: rgb(55, 71, 79); transform-origin: 278.55px 221.205px;" id="elw3vq3h7xi" class="animable"></path><path d="M273.2,192.21l-17.66,56.3c-.71,1.64.06,3.05,1.71,3.15l29.47,1.68a4.78,4.78,0,0,0,4.27-2.8l17.65-56.31c.71-1.64-.05-3-1.7-3.14l-29.48-1.69A4.78,4.78,0,0,0,273.2,192.21Z" style="fill: rgb(69, 90, 100); transform-origin: 282.091px 221.37px;" id="ela92oljxv40q" class="animable"></path><path d="M281.13,195.28a2.51,2.51,0,1,1-2.3-2.7A2.51,2.51,0,0,1,281.13,195.28Z" style="fill: rgb(38, 50, 56); transform-origin: 278.628px 195.082px;" id="elqh29j5yed4" class="animable"></path><path d="M169.73,273.11c14.33,36.61,48.72,85.19,64.2,86.41,7.36.59,20.4,3.22,30.63-4.61,22.32-17.08,42.29-51.26,47.22-71.25,1.76-7.11-32.22-25-37.78-19.49-13,12.92-28.85,38.91-31,38.61-7.88-1.12-37.18-29-57.61-48.59C160.59,230.39,164,258.52,169.73,273.11Z" style="fill: rgb(235, 148, 129); transform-origin: 238.733px 302.697px;" id="elxqyryzc8rnp" class="animable"></path><path d="M315.1,246.54c-2.74-14.86-5.72-18.25-1.38-32,2.85-9-1.69-14.73-8.68-7.79-11.44,11.34-11.93,31.25-10.11,38.2Z" style="fill: rgb(235, 148, 129); transform-origin: 304.615px 225.104px;" id="ely8mfhhigav" class="animable"></path><path d="M309.66,289.82s7.86-19.93,6.51-36c-.94-11.14-5.68-35.16-35.75-49.66-7.13-3.44-19.73-3.28-10.12,6.57,6.82,7,13.27,9.37,16.5,14.16,0,0-16,2.1-19.18,9.38a147.47,147.47,0,0,0-6.91,19.61,30.48,30.48,0,0,0,3.55,1.63s-2.75,6.91,1.82,17.27Z" style="fill: rgb(235, 148, 129); transform-origin: 288.518px 245.974px;" id="elrsqi69tcvzd" class="animable"></path><path d="M313.58,243.28c-4.21-4.08-13.28-12.57-23.12-16.94-10.92-4.85-33.28-11.25-36.78-3.15-2.56,5.94,5.76,9.14,5.76,9.14s-9.8-.7-10.94,5.17c-1,5.35,5.54,7.44,5.54,7.44s-6,.6-6,5.95c0,6.43,12.59,4.12,18.21,10.65C267.49,263,313.58,243.28,313.58,243.28Z" style="fill: rgb(235, 148, 129); transform-origin: 280.81px 240.471px;" id="elsi6adw2d8dp" class="animable"></path><path d="M287.26,238.74c-4.59-3.19-16.87-7.75-27.62-6.56-.25,0-.36.22-.13.24a117.75,117.75,0,0,1,27.71,6.42C287.28,238.87,287.31,238.77,287.26,238.74Z" style="fill: rgb(38, 50, 56); transform-origin: 273.335px 235.416px;" id="elm4vkxkkufm" class="animable"></path><path d="M282,249.63c-4.24-2.35-17.1-6.48-28-4.91-.24,0-.34.24-.11.26a125.47,125.47,0,0,1,28,4.75A.05.05,0,0,0,282,249.63Z" style="fill: rgb(38, 50, 56); transform-origin: 267.89px 247.064px;" id="eltsnefcha8ih" class="animable"></path><path d="M214.46,276.09,209,282.72l-1.13,1.38L186,310.52s-19.79-32.32-23.79-50.7c-2.39-11-.67-17.55,4.14-18.74a6.51,6.51,0,0,1,1.09-.16c3.11-.27,7.29,1.37,12.29,5.06C193.81,256.38,214.46,276.09,214.46,276.09Z" style="fill: rgb(113, 39, 255); transform-origin: 187.801px 275.706px;" id="elinjszchvw49" class="animable"></path><path d="M213.24,275a37.84,37.84,0,0,1-1.85,4.85l3-3.6h0a.38.38,0,0,0,0-.13C214.3,275.94,213.89,275.55,213.24,275Zm-33.59-29a27.51,27.51,0,0,0-5.3,4.39A27,27,0,0,0,166.87,269a49.29,49.29,0,0,0,.36,5.57q.74,1.71,1.5,3.42c-.09-.74-.19-1.47-.29-2.22a38,38,0,0,1-.16-12.08,26.51,26.51,0,0,1,3.55-8.91,28.25,28.25,0,0,1,8.26-8.57c-.13-.08-.24-.17-.36-.26Z" style="fill: rgb(255, 255, 255); transform-origin: 190.633px 262.9px;" id="elhg5pmq1nfic" class="animable"></path><path d="M181.75,299.53c1.18-2.78,13.33-19.47,23.45-30.07a.17.17,0,0,1,.26.23c-1,1.3-21,28.11-23.36,30.14C181.91,300,181.67,299.73,181.75,299.53Z" style="fill: rgb(38, 50, 56); transform-origin: 193.619px 284.643px;" id="elrfzz16xruz" class="animable"></path><g id="el36aplrg7ut3"><path d="M200,293.63l-14,16.88s-19.79-32.31-23.79-50.69c-2.76-12.68-.07-19.42,6.5-18.91Z" style="opacity: 0.05; transform-origin: 180.567px 275.697px;" class="animable"></path></g><path d="M204,393.19c-2.8,3-121.19,15.65-121.87,14.83-1.81-2.21,9.08-121.86,57.58-165.69,8.55-7.72,23.65-5.52,30.65-1.55,3.49,2,9.57,18.52,15.52,37.83C190.38,293.36,205.72,391.25,204,393.19Z" style="fill: rgb(113, 39, 255); transform-origin: 143.039px 322.613px;" id="elq7y8vyjxao" class="animable"></path><path d="M204,393.19c-.62.67-7,1.83-16.53,3.21l-1.08.15c-4.82.69-10.38,1.43-16.38,2.18l-1.3.17c-17.13,2.15-37.56,4.45-54.28,6.21l-.54.05c-18,1.9-31.53,3.14-31.76,2.86s-.23-5.27.56-13.13c0-.33.07-.68.1-1,1.89-18.17,7.13-51.18,17.79-83.11.17-.52.35-1,.52-1.55a248.57,248.57,0,0,1,11.27-27.9c.13-.27.25-.53.39-.8a149.91,149.91,0,0,1,15.2-25.24c.2-.26.39-.51.6-.75a92,92,0,0,1,11.15-12.19,18.17,18.17,0,0,1,3.77-2.59c.31-.16.63-.31.95-.45a27.55,27.55,0,0,1,13.51-2l1.14.12a30.6,30.6,0,0,1,11.28,3.38c1.37.79,3.15,3.81,5.16,8.4.1.2.19.42.28.64,3,7,6.59,17.44,10.08,28.79,1.23,4,3.28,14.2,5.55,26.92l.15.86c.79,4.39,1.6,9.09,2.41,13.93.12.69.24,1.37.35,2.06,1.65,9.88,3.3,20.26,4.77,29.94.05.39.11.79.18,1.17,1.24,8.28,2.34,16,3.19,22.39.06.51.12,1,.19,1.5C203.8,386.59,204.38,392.72,204,393.19Z" style="fill: rgb(113, 39, 255); transform-origin: 143.057px 322.611px;" id="elqsddnwhn1k" class="animable"></path><path d="M165.48,381.59a25.64,25.64,0,0,0-7.55-7A28.63,28.63,0,0,0,147.59,371c-3.82-.66-7.83-1-11.41-2.66-3.42-1.55-5.82-4.32-8.21-7.11-.63-.73-1.28-1.46-1.94-2.16.75-.51,1.51-1,2.29-1.51,4.49-2.76,9.45-4.84,13.6-8.12a20.53,20.53,0,0,0,7.44-11.67,24,24,0,0,0-1-13.7,26.76,26.76,0,0,0-8.42-11.19,36.23,36.23,0,0,0-27.29-7.08,40,40,0,0,0-11.58,3.38c-.17.52-.35,1-.52,1.55a37.59,37.59,0,0,1,5.52-2.25,36.8,36.8,0,0,1,27.75,1.95,28.94,28.94,0,0,1,10.51,8.88A23.29,23.29,0,0,1,148.6,332a20.38,20.38,0,0,1-3.67,12.64c-3,4.07-7.57,6.53-11.91,8.88-2.68,1.46-5.28,3-7.81,4.71a15.58,15.58,0,0,0-5.16-3.54,14.83,14.83,0,0,0-10-.06C103,357,98.81,363.83,98,371a28.21,28.21,0,0,0,1.36,11.84,53.13,53.13,0,0,1-9.79,7.9,30,30,0,0,1-6.84,3.12c0,.34-.07.69-.1,1,.43-.12.86-.25,1.28-.4,6.13-2.07,11.23-6.05,15.84-10.52a48.35,48.35,0,0,0,5,9.87,71.21,71.21,0,0,0,9.1,11.32l.54-.05a72.37,72.37,0,0,1-5.53-6.58,56,56,0,0,1-8.43-15.21c1.71-1.7,3.36-3.47,5-5.22,3.16-3.44,6.27-7,9.64-10.21a78.33,78.33,0,0,1,10.13-8.23c2.15,2.29,4,4.88,6.34,7a20.32,20.32,0,0,0,9.62,4.41c3.67.77,7.45,1.08,11.06,2.19a23.05,23.05,0,0,1,8.65,5,23.88,23.88,0,0,1,8,17.73,20.82,20.82,0,0,1-.23,2.95l1.3-.17A24.36,24.36,0,0,0,165.48,381.59Zm-45.79-19.31a99.15,99.15,0,0,0-10.63,10.17c-3,3.22-5.89,6.59-9,9.74a30,30,0,0,1-1.14-5.45c-.78-7,1.35-15,7.37-19.18a15.36,15.36,0,0,1,9.42-2.79,13.22,13.22,0,0,1,8.66,4.07C122.78,359.93,121.21,361.06,119.69,362.28Zm79.37-10c-3.46,2.77-6.75,5.79-10.62,8-5.57,3.18-13.23,4.87-18.3-.18a11.84,11.84,0,0,1-1-15.89c2-2.8,4.47-5.15,6.41-8a51.34,51.34,0,0,0,4.15-7.51,11.78,11.78,0,0,0,7.57-.27,14.09,14.09,0,0,0,7-6.12c-.11-.69-.23-1.37-.35-2.06a17.15,17.15,0,0,1-3,4.18,10.91,10.91,0,0,1-8.74,3.41,12.72,12.72,0,0,1-1.94-.35c.15-.31.29-.63.43-1,2.81-6.42,5.16-13.21,9.58-18.77a19,19,0,0,1,1.25-1.44l-.15-.86c-4.16,4.32-6.84,9.94-9.21,15.37-.93,2.13-1.84,4.27-2.83,6.39a15.53,15.53,0,0,1-5.88-3.76c-5.43-5.53-5.84-14.07-5.28-21.35.36-4.44,1-8.86,1.22-13.3a75.54,75.54,0,0,0-1-13.09,38,38,0,0,1-.16-12.08,26.51,26.51,0,0,1,3.55-8.91,27.06,27.06,0,0,1,3.92-5c-.09-.22-.18-.44-.28-.64-.38.36-.75.73-1.12,1.12A27,27,0,0,0,166.87,269c0,4.56.91,9.05,1.26,13.59a71.12,71.12,0,0,1-.67,14c-.93,8.09-1.76,17,2.46,24.36a17.17,17.17,0,0,0,8.87,7.52c-.47,1-.95,2-1.47,2.92a45.07,45.07,0,0,1-3.08,4.93c-1.07,1.46-2.27,2.82-3.45,4.19-2.17,2.53-4.38,5.29-5,8.63a13.06,13.06,0,0,0,1.26,8.42,12.47,12.47,0,0,0,6.17,5.88,15.15,15.15,0,0,0,10.14.27c6.26-1.83,11-6.24,15.93-10.22C199.17,353.11,199.11,352.71,199.06,352.32Zm3.56,25.06c-3.15-2.5-6.51-5-10.63-5.33a8.45,8.45,0,0,0-5.72,1.41A9.4,9.4,0,0,0,183,378a17.31,17.31,0,0,0,.45,12.31,20.54,20.54,0,0,0,4,6.14l-1.08.15a21.2,21.2,0,0,1-2.91-4,19.35,19.35,0,0,1-2.25-6.64c-.62-4.05,0-8.61,2.66-11.86,2.89-3.52,7.6-3.88,11.65-2.4a25.44,25.44,0,0,1,6.94,4.2C202.49,376.39,202.55,376.89,202.62,377.38ZM158,238.94c.36-.5.69-1,1-1.54l-1.14-.12a50.79,50.79,0,0,1-8.21,9.69l-.62.59a20.94,20.94,0,0,0-2.93-6.19,17.36,17.36,0,0,0-1.75-2.08c-.32.14-.64.29-.95.45a18.67,18.67,0,0,1,4.53,7.59c.1.33.19.66.28,1a31.74,31.74,0,0,1-9.36,6.42c-3.28,1.33-7.28,1.6-10.37-.22-.21.24-.4.49-.6.75a11.91,11.91,0,0,0,8.45,1.31c4.59-.87,8.51-3.9,11.94-6.91l.23-.2c1.44,6.18.9,12.7,1.87,19,1.11,7.17,4.55,14.42,2.78,21.76a12.63,12.63,0,0,1-4.43,7.31,10.35,10.35,0,0,1-9.49,1.14c-7.08-2.27-11.21-9-17.07-13.14a59.9,59.9,0,0,0-9.48-5c-.14.27-.26.53-.39.8,2,.95,4,1.84,5.82,2.85a31.12,31.12,0,0,1,4.1,2.59,47.76,47.76,0,0,1,4.32,3.84c2.71,2.64,5.37,5.45,8.67,7.38,3,1.75,6.59,2.86,10.07,2.19a10.8,10.8,0,0,0,7.11-5.3,17.7,17.7,0,0,0,2.28-8.86c0-4-1.09-8-2.06-11.87a59.76,59.76,0,0,1-1.31-6.25c-.26-1.86-.41-3.72-.52-5.59a105.23,105.23,0,0,0-.92-11.07c-.14-.85-.31-1.69-.51-2.53A58.57,58.57,0,0,0,158,238.94Z" style="fill: rgb(255, 255, 255); transform-origin: 142.625px 321.205px;" id="el45zgggmhsaf" class="animable"></path><path d="M128.19,259C108.7,299.57,82.61,400.39,78.78,415.21c-2.61,10.06,49.92,20.25,51.31,13.26,1.6-8,21.69-126,19.69-168.5C148.69,236.71,134.93,245,128.19,259Z" style="fill: rgb(235, 148, 129); transform-origin: 114.303px 338.079px;" id="eltjrzn54akfe" class="animable"></path><path d="M130.74,423.82c-.62,7.64-5,23.18-8.68,25.71s-23.87,3.09-34,3.63S75.75,451,75.73,447.47,97,442.18,97,442.18s-28,9.65-35.09,11.35-23.34,6.73-26,.93C34.63,451.84,39,448.9,39,448.9s-6.81,2.38-8.09-1c-1.46-3.85,3.93-6.29,3.93-6.29s-4.28,1.1-4.54-2.09c-.6-7.11,26.26-12,26.26-12s-20.18,11.17-21.15,5.39c-1.34-8,40.63-19.06,44.86-22.8a82,82,0,0,0,8.53-9.21Z" style="fill: rgb(235, 148, 129); transform-origin: 80.5151px 429.039px;" id="els2rh2fly8p9" class="animable"></path><path d="M76,449.23a3.12,3.12,0,0,1,.82-2.77,8.87,8.87,0,0,1,2.39-1.73,33.21,33.21,0,0,1,5.71-2.19c3.95-1.23,8-2.16,12-3.43a49.44,49.44,0,0,0-12.46,2.07,22.86,22.86,0,0,0-5.86,2.6,8,8,0,0,0-2.38,2.27A3.25,3.25,0,0,0,76,449.23Z" style="fill: rgb(38, 50, 56); transform-origin: 86.3028px 444.17px;" id="el0v9wqbqhkjsr" class="animable"></path><path d="M39,448.9c2.89-.87,5.73-1.85,8.56-2.83s5.65-2,8.47-3l8.43-3.14c2.81-1,5.61-2.08,8.45-3.09a68.07,68.07,0,0,0-8.8,2.05c-2.9.82-5.74,1.82-8.57,2.84s-5.62,2.14-8.37,3.35S41.67,447.48,39,448.9Z" style="fill: rgb(38, 50, 56); transform-origin: 55.955px 442.87px;" id="elv7748cu8mpo" class="animable"></path><path d="M65.67,430.07a57.87,57.87,0,0,0-8.14,1.56,78.18,78.18,0,0,0-7.92,2.49A72.3,72.3,0,0,0,42,437.43a58.16,58.16,0,0,0-7.16,4.18c2.57-1,5.06-2.18,7.61-3.18s5.09-2,7.66-3,5.15-1.87,7.73-2.78S63.05,430.93,65.67,430.07Z" style="fill: rgb(38, 50, 56); transform-origin: 50.255px 435.84px;" id="elc2tcoy1tjz5" class="animable"></path><path d="M61.13,423.5a51.11,51.11,0,0,0-12.91,3.44,50.83,50.83,0,0,0-11.71,6.45c4.13-1.72,8.14-3.51,12.24-5.12S57,425.09,61.13,423.5Z" style="fill: rgb(38, 50, 56); transform-origin: 48.82px 428.445px;" id="elxrylhy4zre" class="animable"></path><path d="M150.79,305.61l-46.82.23s12.71-37.63,24.81-53.18,21.81-13.5,22.89,4.8S150.79,305.61,150.79,305.61Z" style="fill: rgb(113, 39, 255); transform-origin: 127.982px 274.038px;" id="el20wchpmi1sy" class="animable"></path><path d="M151.67,257.46c.06.83.1,1.7.13,2.57,0,.39,0,.78.06,1.18.66,18.33-1.06,44.4-1.06,44.4l-12.72.07h-1.27l-32.83.18s5.39-16,12.47-31.38c.24-.51.47-1,.73-1.54,3.61-7.72,7.63-15.17,11.59-20.26C140.88,237.11,150.58,239.17,151.67,257.46Z" style="fill: rgb(113, 39, 255); transform-origin: 127.995px 274.052px;" id="elmu4tt47owj" class="animable"></path><path d="M112.85,305.8l9.51-.06A38.8,38.8,0,0,0,112.85,305.8Zm38.47-37.92c-.26-1.86-.41-3.72-.52-5.59a105.23,105.23,0,0,0-.92-11.07c-.14-.85-.31-1.69-.51-2.53.18-.18.37-.34.56-.53-.14-.36-.28-.7-.43-1-.14.15-.3.28-.44.43a22.61,22.61,0,0,0-1-2.82,6.85,6.85,0,0,0-2-1.76,19.9,19.9,0,0,1,2,4.35c.1.33.19.66.28,1a31.74,31.74,0,0,1-9.36,6.42c-3.55,1.45-7.95,1.64-11.12-.72-.19.26-.37.51-.55.78a11.72,11.72,0,0,0,9.15,1.78c4.59-.87,8.51-3.9,11.94-6.91l.23-.2c1.44,6.18.9,12.7,1.87,19,.37,2.34,1,4.7,1.58,7.06,0-1.33,0-2.66,0-4C151.73,270.31,151.49,269.1,151.32,267.88Zm-2.57,29.62a10.35,10.35,0,0,1-9.49,1.14c-7.08-2.27-11.21-9-17.07-13.14a54,54,0,0,0-8.59-4.58c-.13.27-.24.55-.36.83,1.66.79,3.33,1.56,4.9,2.41a31.12,31.12,0,0,1,4.1,2.59,47.76,47.76,0,0,1,4.32,3.84c2.71,2.64,5.37,5.45,8.67,7.38,3,1.75,6.59,2.86,10.07,2.19a10.4,10.4,0,0,0,6-3.72c0-.59.06-1.21.08-1.85A10.34,10.34,0,0,1,148.75,297.5Z" style="fill: rgb(255, 255, 255); transform-origin: 132.465px 274.405px;" id="el4ygdrj4p1tr" class="animable"></path><path d="M110,295c3-.92,24.61-2.35,39.93-1.33a.18.18,0,0,1,0,.36c-1.69.1-36.73,2-39.93,1.46C109.69,295.48,109.74,295.11,110,295Z" style="fill: rgb(38, 50, 56); transform-origin: 129.947px 294.452px;" id="eldxq962nhwul" class="animable"></path><path d="M153.76,277.23a.12.12,0,0,0-.24,0,42,42,0,0,0-1,4.84c-.07.37-.12.75-.19,1.12-.13-4-.32-7.89-.53-11.81,0-.18-.3-.18-.29,0,.12,13.59-.24,26-1.07,33.86l-4.06.34a.25.25,0,0,0,0,.49l5.16.18c.22,0,1.08-11.32.87-20.24.28-1.29.58-2.57.79-3.87A32.28,32.28,0,0,0,153.76,277.23Z" style="fill: rgb(38, 50, 56); transform-origin: 149.97px 288.747px;" id="eljd1o1t0qzrm" class="animable"></path><path d="M110.3,305.85c-2.11.13-4.22.24-6.32.3h-.42l.13-.41c.82-2.58,1.66-5.15,2.58-7.69s1.85-5.09,2.85-7.6,2-5,3.17-7.48,2.29-4.91,3.6-7.28l-3,7.56-2.88,7.56-2.88,7.57L104.26,306l-.28-.4C106.08,305.61,108.19,305.72,110.3,305.85Z" style="fill: rgb(38, 50, 56); transform-origin: 109.725px 290.92px;" id="el1hbs4i3h4hf" class="animable"></path><path d="M167.48,261.51c-7.12,2.35-20.56-7.66-26.27-16.22-.39-.59,0-25.47-.4-30.4-.09-1,31.67,4.82,31.67,4.82s-2.15,10.62-1.35,19.22C171.21,239.65,174.36,259.24,167.48,261.51Z" style="fill: rgb(235, 148, 129); transform-origin: 156.645px 238.316px;" id="eld3y6u34lj96" class="animable"></path><path d="M172.49,219.7l0,0c0,.15-.15.77-.31,1.77-.28,1.7-.7,4.45-.95,7.57a56.89,56.89,0,0,0-.07,9.86,4.7,4.7,0,0,0,.08.68v.11c.07.4.13.94.2,1.58a19.48,19.48,0,0,1-3,.43c-16.91,1.08-24.39-19.13-26.65-26.95l.54.05c.83.06,1.93.19,3.25.36l1,.14c2.11.3,4.63.7,7.25,1.12.86.14,1.72.27,2.6.43,1.88.33,3.78.65,5.54.94.76.15,1.51.28,2.21.4s1.55.27,2.26.39l1,.18.49.1,2.63.47,1.26.22a4.57,4.57,0,0,1,.53.12c.05,0,.07,0,.09,0Z" style="fill: rgb(38, 50, 56); transform-origin: 157.14px 228.246px;" id="elo9mrt5emntl" class="animable"></path><path d="M134.73,178.64c-3,11.13,3.86,42.76,11.93,49.6,11.72,9.91,30.37,10.28,38.68-3.66,8-13.51-1.63-54.59-10.6-60.75C161.52,154.76,139.17,162.2,134.73,178.64Z" style="fill: rgb(235, 148, 129); transform-origin: 161.169px 197.659px;" id="el4pgp2mu0gak" class="animable"></path><path d="M139.32,209.6c5.65-1.82,3.15-16.52,3.15-16.52s6.74-4,6.65-17.76c0,0,7.28,12.27,30.83,5.05a21,21,0,0,0-4-12.23A89.09,89.09,0,0,1,184.35,180S186.52,159,168.18,155c-7.3-1.59-17.53.83-31.85,11.4,0,0-4.69-8.87-6.28-7.31s3.47,9.72,3.47,9.72-7.28-.9-8.18.75c-.78,1.42,6.18,2,6.18,2s-10,5.25-6,17.1C129.11,199.5,136.52,210.51,139.32,209.6Z" style="fill: rgb(38, 50, 56); transform-origin: 154.503px 182.104px;" id="eltrwk3ueligm" class="animable"></path><path d="M133.4,171a12.68,12.68,0,0,0-10.86,12.81c.11,3.53,1.64,7.09,3.32,10.15a43.8,43.8,0,0,0,6.85,8.9c.14.15.36-.1.21-.25a33.52,33.52,0,0,1-5.75-8.52,30.9,30.9,0,0,1-3.24-9.3,12.17,12.17,0,0,1,9.54-13.44A.18.18,0,0,0,133.4,171Z" style="fill: rgb(38, 50, 56); transform-origin: 128.065px 186.953px;" id="el2876tszebslj" class="animable"></path><path d="M153.83,154.11a48.67,48.67,0,0,0-11,6.45,35.47,35.47,0,0,0-8.56,8.55c-.11.17.11.37.25.21,5.25-5.63,12.09-9.89,19-13.25,6.43-3.15,14.46-4.58,20.62,0a.1.1,0,1,0,.12-.15C168.58,151,160.4,151.45,153.83,154.11Z" style="fill: rgb(38, 50, 56); transform-origin: 154.281px 160.764px;" id="elnekqb8ue3no" class="animable"></path><path d="M142.77,204.55s-7.36-10.19-12-7.55,1,17.48,6.52,19.44a5.59,5.59,0,0,0,7.44-3.11Z" style="fill: rgb(235, 148, 129); transform-origin: 136.891px 206.733px;" id="elmanipcqxytl" class="animable"></path><path d="M132.49,201.21c-.09,0-.1.12,0,.15,3.87,1.5,5.95,5,7.42,8.71-1.16-1.4-2.73-2.16-4.62-.77-.1.07,0,.23.1.2a3.44,3.44,0,0,1,3.8,1.14,17.11,17.11,0,0,1,1.86,3c.18.34.8.15.67-.25a.59.59,0,0,1,0-.08C141.69,208.43,137.77,201.63,132.49,201.21Z" style="fill: rgb(38, 50, 56); transform-origin: 137.078px 207.513px;" id="el87fk8s2ti27" class="animable"></path><path d="M167.71,196.8c0-.07-.14.13-.13.22.45,2.1.6,4.59-1.19,5.63a.06.06,0,0,0,0,.11C168.7,202,168.47,198.73,167.71,196.8Z" style="fill: rgb(38, 50, 56); transform-origin: 167.297px 199.773px;" id="elj863ec36y4l" class="animable"></path><path d="M165.43,194.93c-3.44.35-2.5,7.22.69,6.9S168.32,194.64,165.43,194.93Z" style="fill: rgb(38, 50, 56); transform-origin: 165.675px 198.381px;" id="ele55v0wsck3" class="animable"></path><path d="M179.82,194.32c0-.08.18.08.19.17.23,2.13.85,4.54,2.87,5,.06,0,.07.12,0,.12C180.48,199.59,179.69,196.38,179.82,194.32Z" style="fill: rgb(38, 50, 56); transform-origin: 181.368px 196.954px;" id="elui3rkl6rxih" class="animable"></path><path d="M181.42,191.84c3.39-.73,4.6,6.1,1.46,6.77S178.58,192.45,181.42,191.84Z" style="fill: rgb(38, 50, 56); transform-origin: 182.251px 195.221px;" id="elkpgaaag4n1f" class="animable"></path><path d="M162.21,193a26.31,26.31,0,0,0,2.53-1.31,4.55,4.55,0,0,0,2.33-1.82,1.47,1.47,0,0,0-.47-1.72,3.65,3.65,0,0,0-3.69.13,5.33,5.33,0,0,0-2.73,2.7A1.57,1.57,0,0,0,162.21,193Z" style="fill: rgb(38, 50, 56); transform-origin: 163.628px 190.408px;" id="eluomp6m801i8" class="animable"></path><path d="M183.08,188.08a26.66,26.66,0,0,1-2.83-.34,4.62,4.62,0,0,1-2.82-.89,1.46,1.46,0,0,1-.16-1.78,3.63,3.63,0,0,1,3.49-1.17,5.27,5.27,0,0,1,3.51,1.58A1.56,1.56,0,0,1,183.08,188.08Z" style="fill: rgb(38, 50, 56); transform-origin: 180.854px 185.951px;" id="el6wm1ap6auv" class="animable"></path><path d="M168.11,215.73c.58.43,1.18,1,2,1a5.59,5.59,0,0,0,2.21-.85c.07,0,.15,0,.11.1a2.91,2.91,0,0,1-2.54,1.53,2.29,2.29,0,0,1-1.93-1.66C167.87,215.73,168,215.67,168.11,215.73Z" style="fill: rgb(38, 50, 56); transform-origin: 170.185px 216.608px;" id="elxuckptle8tp" class="animable"></path><path d="M169.47,209.05a7.32,7.32,0,0,0,5.28,2.56,9.28,9.28,0,0,0,2.62-.24,3.51,3.51,0,0,0,.49-.12l.46-.14a.53.53,0,0,0,.36-.53v0l-.05-.22h0l0-.19c-.19-1.64-.69-4.11-.69-4.11.64.22,3.88,1.17,3.72.32-1.4-7-2.95-14.84-5.82-21.54a.2.2,0,0,0-.39.11c1.08,6.81,3.34,13.38,4.53,20.2a12.48,12.48,0,0,0-3.56-.57c-.22.1,1.05,4.76,1.08,5.5a.45.45,0,0,1,0,.08c-2.7.73-4.89.18-7.82-1.3C169.47,208.73,169.32,208.9,169.47,209.05Z" style="fill: rgb(38, 50, 56); transform-origin: 175.538px 198.158px;" id="elv2iiscaaeko" class="animable"></path><path d="M176.29,210.67a8.66,8.66,0,0,1-3.07,3.14,3.86,3.86,0,0,1-2.33.47c-1.76-.21-2-1.76-1.89-3.14a9.33,9.33,0,0,1,.48-2.15A11.24,11.24,0,0,0,176.29,210.67Z" style="fill: rgb(38, 50, 56); transform-origin: 172.634px 211.648px;" id="el8f44aez7m9" class="animable"></path><path d="M173.22,213.81a3.86,3.86,0,0,1-2.33.47c-1.76-.21-2-1.76-1.89-3.14C170.85,211.08,172.82,212.06,173.22,213.81Z" style="fill: rgb(255, 154, 187); transform-origin: 171.099px 212.721px;" id="elep26969hz3" class="animable"></path></g><defs>     <filter id="active" height="200%">         <feMorphology in="SourceAlpha" result="DILATED" operator="dilate" radius="2"></feMorphology>                <feFlood flood-color="#32DFEC" flood-opacity="1" result="PINK"></feFlood>        <feComposite in="PINK" in2="DILATED" operator="in" result="OUTLINE"></feComposite>        <feMerge>            <feMergeNode in="OUTLINE"></feMergeNode>            <feMergeNode in="SourceGraphic"></feMergeNode>        </feMerge>    </filter>    <filter id="hover" height="200%">        <feMorphology in="SourceAlpha" result="DILATED" operator="dilate" radius="2"></feMorphology>                <feFlood flood-color="#ff0000" flood-opacity="0.5" result="PINK"></feFlood>        <feComposite in="PINK" in2="DILATED" operator="in" result="OUTLINE"></feComposite>        <feMerge>            <feMergeNode in="OUTLINE"></feMergeNode>            <feMergeNode in="SourceGraphic"></feMergeNode>        </feMerge>            <feColorMatrix type="matrix" values="0   0   0   0   0                0   1   0   0   0                0   0   0   0   0                0   0   0   1   0 "></feColorMatrix>    </filter></defs></svg>